<svg width="24" height="24" viewBox="0 0 24 24" fill="none" xmlns="http://www.w3.org/2000/svg">
<g clip-path="url(#clip0_269_152)">
<path d="M10.53 10.7298C10.43 10.4198 10.34 10.1198 10.24 9.8098C10.14 9.4998 10.05 9.2098 9.97 8.9198C9.89 8.6398 9.82 8.3798 9.75 8.1398H9.73C9.64 8.5698 9.53 8.9998 9.39 9.4298C9.24 9.9098 9.09 10.4098 8.93 10.9098C8.79 11.4198 8.64 11.8898 8.49 12.3098H11.03C10.97 12.0988 10.89 11.8498 10.8 11.5888C10.71 11.3198 10.62 11.0298 10.53 10.7298ZM19.75 0.299805H4.25C1.9 0.299805 0 2.1998 0 4.5498V19.4498C0 21.7998 1.9 23.6998 4.25 23.6998H19.75C22.1 23.6998 24 21.7998 24 19.4498V4.5498C24 2.1998 22.1 0.299805 19.75 0.299805ZM14.7 16.8298H12.609C12.54 16.8398 12.47 16.7898 12.45 16.7198L11.63 14.3398H7.91L7.15 16.6898C7.13 16.7798 7.05 16.8398 6.96 16.8308H5.08C4.97 16.8308 4.94 16.7698 4.97 16.6508L8.19 7.3798C8.22 7.2798 8.25 7.1698 8.29 7.0498C8.33 6.8398 8.35 6.6198 8.35 6.3998C8.34 6.3498 8.38 6.2998 8.43 6.2898H11.02C11.1 6.2898 11.14 6.3198 11.15 6.3698L14.8 16.6698C14.83 16.7788 14.8 16.8298 14.7 16.8298ZM18.1 16.6798C18.1 16.7898 18.061 16.8398 17.971 16.8398H16.01C15.91 16.8398 15.86 16.7788 15.86 16.6798V8.9798C15.86 8.8798 15.901 8.8398 15.991 8.8398H17.971C18.061 8.8398 18.1 8.8898 18.1 8.9798V16.6798ZM17.891 7.6498C17.7729 7.76974 17.6305 7.86303 17.4734 7.9234C17.3163 7.98376 17.148 8.00982 16.98 7.9998C16.65 8.0098 16.33 7.8798 16.089 7.6498C15.8599 7.39929 15.7379 7.0691 15.749 6.7298C15.739 6.3898 15.869 6.0698 16.108 5.8398C16.35 5.6098 16.67 5.4898 17 5.4898C17.391 5.4898 17.689 5.6098 17.91 5.8398C18.13 6.0798 18.25 6.3998 18.24 6.7298C18.25 7.0698 18.13 7.3998 17.891 7.6498Z" />
</g>
<defs>
<clipPath id="clip0_269_152">
<rect width="24" height="24" fill="white"/>
</clipPath>
</defs>
</svg>
