<svg width="24" height="24" viewBox="0 0 24 24" fill="none" xmlns="http://www.w3.org/2000/svg">
<g clip-path="url(#clip0_269_150)">
<path d="M9.85 8.4198C9.48 8.2698 9.08 8.2098 8.67 8.2198C8.41 8.2198 8.18 8.2198 7.99 8.2298C7.79 8.2198 7.65 8.2298 7.58 8.2398V11.5998C7.72 11.6098 7.85 11.6198 7.97 11.6198H8.5C8.89 11.6198 9.28 11.5598 9.65 11.4398C9.97 11.3498 10.25 11.1598 10.47 10.9098C10.68 10.6598 10.78 10.3198 10.78 9.8798C10.79 9.5698 10.71 9.2598 10.55 8.9898C10.3833 8.73016 10.138 8.53048 9.85 8.4198ZM19.75 0.299805H4.25C1.9 0.299805 0 2.1998 0 4.5498V19.4488C0 21.7988 1.9 23.6988 4.25 23.6988H19.75C22.1 23.6988 24 21.7988 24 19.4488V4.5498C24 2.1998 22.1 0.299805 19.75 0.299805ZM12.359 11.9498C11.96 12.5098 11.4 12.9298 10.75 13.1698C10.07 13.4198 9.32 13.5098 8.5 13.5098C8.26 13.5098 8.1 13.5098 8 13.4998C7.9 13.4898 7.76 13.4898 7.57 13.4898V16.6988C7.58 16.7688 7.53 16.8298 7.46 16.8398H5.52C5.44 16.8398 5.4 16.7988 5.4 16.7088V6.4198C5.4 6.3498 5.43 6.3098 5.5 6.3098C5.67 6.3098 5.83 6.3098 6.06 6.2998C6.3 6.2898 6.55 6.2898 6.82 6.2798C7.09 6.2698 7.38 6.2698 7.69 6.2598C8 6.2498 8.3 6.2498 8.6 6.2498C9.42 6.2498 10.1 6.3498 10.66 6.5598C11.16 6.7298 11.62 7.0098 12 7.3798C12.32 7.6998 12.57 8.0898 12.73 8.5198C12.879 8.9398 12.959 9.3698 12.959 9.8198C12.96 10.6798 12.76 11.3898 12.359 11.9498ZM19.45 15.8398C19.17 16.2398 18.779 16.5488 18.33 16.7308C17.84 16.9398 17.24 17.0488 16.519 17.0488C16.06 17.0488 15.609 17.0098 15.16 16.9198C14.81 16.8588 14.46 16.7498 14.14 16.5998C14.07 16.5608 14.019 16.4908 14.029 16.4108V14.6708C14.029 14.6418 14.04 14.6008 14.07 14.5808C14.099 14.5608 14.13 14.5708 14.16 14.5908C14.55 14.8208 14.96 14.9818 15.4 15.0808C15.779 15.1808 16.179 15.2308 16.58 15.2308C16.96 15.2308 17.23 15.1798 17.41 15.0898C17.57 15.0198 17.68 14.8498 17.68 14.6698C17.68 14.5288 17.6 14.3998 17.44 14.2698C17.28 14.1408 16.951 13.9908 16.461 13.7988C15.951 13.6188 15.482 13.3788 15.041 13.0798C14.7281 12.8557 14.4683 12.5655 14.28 12.2298C14.1211 11.9134 14.0424 11.5628 14.051 11.2088C14.051 10.7788 14.171 10.3688 14.392 9.9988C14.642 9.5988 15.011 9.2788 15.441 9.0788C15.91 8.8398 16.5 8.7298 17.21 8.7298C17.62 8.7298 18.04 8.7598 18.45 8.8198C18.75 8.8598 19.04 8.9398 19.31 9.0498C19.349 9.0598 19.39 9.0998 19.41 9.1398C19.42 9.1798 19.43 9.2198 19.43 9.2598V10.8898C19.43 10.9298 19.41 10.9698 19.38 10.9898C19.29 11.0098 19.24 11.0098 19.2 10.9898C18.9 10.8298 18.58 10.7198 18.24 10.6498C17.87 10.5698 17.5 10.5198 17.12 10.5198C16.92 10.5098 16.71 10.5398 16.519 10.5898C16.39 10.6198 16.279 10.6898 16.209 10.7898C16.159 10.8698 16.129 10.9698 16.129 11.0598C16.129 11.1498 16.169 11.2398 16.23 11.3198C16.32 11.4298 16.439 11.5198 16.57 11.5898C16.799 11.7098 17.04 11.8198 17.279 11.9198C17.82 12.0998 18.34 12.3498 18.82 12.6498C19.15 12.8588 19.42 13.1398 19.609 13.4798C19.769 13.7978 19.849 14.1498 19.839 14.5088C19.85 14.9798 19.71 15.4488 19.45 15.8398Z" />
</g>
<defs>
<clipPath id="clip0_269_150">
<rect width="24" height="24" fill="white"/>
</clipPath>
</defs>
</svg>
