<svg width="24" height="18" viewBox="0 0 24 18" fill="none" xmlns="http://www.w3.org/2000/svg">
<path d="M24 14.6667C24 16.1393 22.806 17.3333 21.3333 17.3333H2.66667C1.194 17.3333 0 16.1393 0 14.6667V2.66667C0 1.194 1.194 0 2.66667 0H21.3333C22.806 0 24 1.194 24 2.66667V14.6667Z" fill="#75AADB"/>
<path d="M0 5.33301H24V11.9997H0V5.33301Z" fill="#EEEEEE"/>
<path d="M12.0003 5.33301L12.3257 7.03167L13.2763 5.58701L12.9263 7.28034L14.357 6.30901L13.3857 7.74034L15.0797 7.39101L13.635 8.34101L15.3337 8.66634L13.635 8.99167L15.0797 9.94234L13.3857 9.59234L14.357 11.023L12.9263 10.0517L13.2763 11.7457L12.3257 10.301L12.0003 11.9997L11.675 10.301L10.725 11.7457L11.0743 10.0517L9.64299 11.023L10.6143 9.59234L8.92099 9.94234L10.3657 8.99167L8.66699 8.66634L10.3657 8.34101L8.92099 7.39101L10.6143 7.74034L9.64299 6.30901L11.0743 7.28034L10.725 5.58701L11.675 7.03167L12.0003 5.33301Z" fill="#FCBF49"/>
<path d="M12.0003 6.21967L12.1617 7.06301L12.239 7.46634L12.465 7.12367L12.937 6.40634L12.763 7.24701L12.6797 7.64967L13.0197 7.41901L13.7303 6.93701L13.2483 7.64767L13.0177 7.98767L13.4197 7.90434L14.261 7.73101L13.5437 8.20301L13.2003 8.42767L13.6037 8.50501L14.447 8.66634L13.6037 8.82767L13.2003 8.90501L13.543 9.13101L14.2603 9.60301L13.419 9.42901L13.0163 9.34567L13.247 9.68567L13.729 10.3957L13.019 9.91367L12.679 9.68301L12.7623 10.0857L12.9363 10.927L12.4643 10.2097L12.239 9.86634L12.1617 10.2697L12.0003 11.113L11.839 10.2697L11.7617 9.86634L11.5357 10.2097L11.0637 10.927L11.237 10.0857L11.3203 9.68367L10.9803 9.91434L10.2697 10.3963L10.7517 9.68567L10.9823 9.34567L10.5797 9.42901L9.73899 9.60301L10.4563 9.13101L10.799 8.90501L10.3957 8.82767L9.55366 8.66634L10.397 8.50501L10.8003 8.42767L10.457 8.20167L9.73966 7.72967L10.5803 7.90301L10.9823 7.98634L10.7517 7.64634L10.269 6.93567L10.9797 7.41834L11.3197 7.64901L11.2363 7.24701L11.063 6.40634L11.535 7.12367L11.761 7.46701L11.8383 7.06367L12.0003 6.21967ZM12.0003 5.33301L11.675 7.03167L10.725 5.58701L11.0743 7.28101L9.64299 6.30967L10.6143 7.74101L8.92099 7.39167L10.3657 8.34167L8.66699 8.66634L10.3657 8.99167L8.92099 9.94234L10.6143 9.59234L9.64299 11.023L11.0743 10.0517L10.725 11.7457L11.675 10.301L12.0003 11.9997L12.3257 10.301L13.2763 11.7457L12.9263 10.0517L14.357 11.023L13.3857 9.59234L15.0797 9.94234L13.635 8.99167L15.3337 8.66634L13.635 8.34101L15.0797 7.39101L13.3857 7.74034L14.357 6.30901L12.9263 7.28034L13.2763 5.58634L12.3257 7.03101L12.0003 5.33301Z" fill="#843511"/>
<path d="M12.0003 9.99967C12.7367 9.99967 13.3337 9.40272 13.3337 8.66634C13.3337 7.92996 12.7367 7.33301 12.0003 7.33301C11.2639 7.33301 10.667 7.92996 10.667 8.66634C10.667 9.40272 11.2639 9.99967 12.0003 9.99967Z" fill="#FCBF49"/>
<path d="M11.9997 10.0833C11.2183 10.0833 10.583 9.448 10.583 8.66667C10.583 7.88533 11.2183 7.25 11.9997 7.25C12.781 7.25 13.4163 7.88533 13.4163 8.66667C13.4163 9.448 12.781 10.0833 11.9997 10.0833ZM11.9997 7.41667C11.3103 7.41667 10.7497 7.97733 10.7497 8.66667C10.7497 9.356 11.3103 9.91667 11.9997 9.91667C12.689 9.91667 13.2497 9.356 13.2497 8.66667C13.2497 7.97733 12.689 7.41667 11.9997 7.41667Z" fill="#843511"/>
<path d="M11.8669 8.51633C11.8669 8.61966 11.6929 8.703 11.4782 8.703C11.2629 8.703 11.0889 8.61966 11.0889 8.51633C11.0889 8.413 11.2629 8.32966 11.4782 8.32966C11.6929 8.32966 11.8669 8.413 11.8669 8.51633ZM12.9022 8.50033C12.9022 8.393 12.7249 8.30566 12.5062 8.30566C12.2875 8.30566 12.1102 8.39233 12.1102 8.50033C12.1102 8.60833 12.2875 8.695 12.5062 8.695C12.7255 8.695 12.9022 8.60766 12.9022 8.50033Z" fill="#C16540"/>
<path d="M11.6416 9.24935C11.6416 9.16535 11.8056 9.09668 12.0069 9.09668C12.2089 9.09668 12.3723 9.16468 12.3723 9.24935C12.3723 9.33335 12.2083 9.40201 12.0069 9.40201C11.8049 9.40201 11.6416 9.33335 11.6416 9.24935Z" fill="#ED8662"/>
</svg>
