<svg viewBox="0 0 28 28" fill="none" xmlns="http://www.w3.org/2000/svg">
<path d="M25.6667 27.9997H3.11111C6.22223 27.9997 5.44445 20.9997 5.44445 20.9997C5.44445 19.2816 6.83745 9.33301 8.55556 9.33301H24.8889C24.8889 9.33301 28 9.33301 28 12.4441V25.6663C28 25.6663 28 27.9997 25.6667 27.9997Z" fill="#99AAB5"/>
<path d="M23.3333 25.6667C23.3333 28 25.6667 28 25.6667 28H2.33333C2.33333 28 0 28 0 24.8889V3.11111C0 1.393 1.393 0 3.11111 0H20.2222C21.9403 0 23.3333 1.393 23.3333 3.11111V25.6667Z" fill="#CCD6DD"/>
<path d="M21 15.5552C21 15.9853 20.6523 16.333 20.2222 16.333H14C13.5706 16.333 13.2222 15.9853 13.2222 15.5552C13.2222 15.1251 13.5706 14.7775 14 14.7775H20.2222C20.6523 14.7775 21 15.1251 21 15.5552ZM21 12.4441C21 12.8742 20.6523 13.2219 20.2222 13.2219H14C13.5706 13.2219 13.2222 12.8742 13.2222 12.4441C13.2222 12.014 13.5706 11.6663 14 11.6663H20.2222C20.6523 11.6663 21 12.014 21 12.4441ZM21 9.33301C21 9.76312 20.6523 10.1108 20.2222 10.1108H14C13.5706 10.1108 13.2222 9.76312 13.2222 9.33301C13.2222 8.9029 13.5706 8.55523 14 8.55523H20.2222C20.6523 8.55523 21 8.9029 21 9.33301ZM21 18.6663C21 19.0965 20.6523 19.4441 20.2222 19.4441H3.11109C2.68176 19.4441 2.33331 19.0965 2.33331 18.6663C2.33331 18.2362 2.68176 17.8886 3.11109 17.8886H20.2222C20.6523 17.8886 21 18.2362 21 18.6663ZM21 21.7775C21 22.2076 20.6523 22.5552 20.2222 22.5552H3.11109C2.68176 22.5552 2.33331 22.2076 2.33331 21.7775C2.33331 21.3473 2.68176 20.9997 3.11109 20.9997H20.2222C20.6523 20.9997 21 21.3473 21 21.7775ZM21 24.8886C21 25.3187 20.6523 25.6663 20.2222 25.6663H3.11109C2.68176 25.6663 2.33331 25.3187 2.33331 24.8886C2.33331 24.4585 2.68176 24.1108 3.11109 24.1108H20.2222C20.6523 24.1108 21 24.4585 21 24.8886ZM19.4444 6.99967C19.4444 6.99967 21 6.99967 21 5.44412V3.88856C21 3.88856 21 2.33301 19.4444 2.33301H3.88887C3.88887 2.33301 2.33331 2.33301 2.33331 3.88856V5.44412C2.33331 5.44412 2.33331 6.99967 3.88887 6.99967H19.4444Z" fill="#99AAB5"/>
<path d="M10.1111 16.3325C10.1111 16.3325 11.6666 16.3325 11.6666 14.7769V10.1102C11.6666 10.1102 11.6666 8.55469 10.1111 8.55469H3.88887C3.88887 8.55469 2.33331 8.55469 2.33331 10.1102V14.7769C2.33331 14.7769 2.33331 16.3325 3.88887 16.3325H10.1111Z" fill="#55ACEE"/>
</svg>
