<svg width="24" height="24" viewBox="0 0 24 24" fill="none" xmlns="http://www.w3.org/2000/svg">
<path d="M11.77 11.2395H9.956V8.20155H12.108C13.278 8.20155 13.942 8.72355 13.942 9.66755C13.942 10.6755 13.169 11.2395 11.768 11.2395H11.77ZM12.094 12.4455H9.957V15.7935H12.188C13.647 15.7935 14.42 15.2085 14.42 14.1085C14.42 13.0085 13.625 12.4455 12.094 12.4455ZM24 11.3895V12.6075C22.872 12.7155 22.183 13.5515 21.774 14.8755C21.367 16.1945 21.311 17.8125 21.354 19.0615C21.399 20.3615 20.386 21.5615 19.017 21.5615H4.985C3.615 21.5615 2.602 20.3615 2.648 19.0615C2.691 17.8125 2.635 16.1945 2.228 14.8755C1.818 13.5515 1.128 12.7155 0 12.6075V11.3895C1.128 11.2815 1.819 10.4455 2.227 9.12155C2.635 7.80255 2.691 6.18455 2.647 4.93555C2.602 3.63555 3.615 2.43555 4.985 2.43555H19.017C20.387 2.43555 21.399 3.63555 21.354 4.93555C21.311 6.18455 21.367 7.80255 21.774 9.12155C22.183 10.4455 22.872 11.2815 24 11.3895ZM16.073 14.2065C16.073 12.8525 15.12 11.8735 13.705 11.7185V11.6615C14.745 11.4925 15.561 10.5265 15.561 9.44855C15.561 7.91155 14.348 6.91055 12.499 6.91055H8.339V17.0825H12.52C14.738 17.0825 16.073 15.9965 16.073 14.2065Z" />
</svg>
