<svg viewBox="0 0 28 28" fill="none" xmlns="http://www.w3.org/2000/svg">
<path d="M24.8889 6.22222H20.2222V3.11111C20.2222 1.393 18.8292 0 17.1111 0H10.8889C9.17078 0 7.77778 1.393 7.77778 3.11111V6.22222H3.11111C1.393 6.22222 0 7.61522 0 9.33333V24.8889C0 26.607 1.393 28 3.11111 28H24.8889C26.607 28 28 26.607 28 24.8889V9.33333C28 7.61522 26.607 6.22222 24.8889 6.22222ZM9.33333 4.66667C9.33333 3.808 10.0302 3.11111 10.8889 3.11111H17.1111C17.9698 3.11111 18.6667 3.808 18.6667 4.66667V6.22222H9.33333V4.66667Z" fill="#9A4E1C"/>
<path d="M28 15.555C28 17.2731 26.607 18.6661 24.8889 18.6661H3.11111C1.393 18.6661 0 17.2731 0 15.555V9.33279C0 7.61468 1.393 6.22168 3.11111 6.22168H24.8889C26.607 6.22168 28 7.61468 28 9.33279V15.555Z" fill="#662113"/>
<path d="M28 13.9995C28 15.7176 26.607 17.1106 24.8889 17.1106H3.11111C1.393 17.1106 0 15.7176 0 13.9995V9.33279C0 7.61468 1.393 6.22168 3.11111 6.22168H24.8889C26.607 6.22168 28 7.61468 28 9.33279V13.9995Z" fill="#9A4E1C"/>
<path d="M17.1111 13.9999C17.1111 14.8586 16.4142 15.5554 15.5556 15.5554H12.4445C11.5858 15.5554 10.8889 14.8586 10.8889 13.9999C10.8889 13.1412 11.5858 12.4443 12.4445 12.4443H15.5556C16.4142 12.4443 17.1111 13.1412 17.1111 13.9999Z" fill="#CCD6DD"/>
</svg>
