<svg width="24" height="24" viewBox="0 0 24 24" fill="none" xmlns="http://www.w3.org/2000/svg">
<g clip-path="url(#clip0_269_142)">
<path d="M21.875 16.3607C21.832 16.3127 20.808 15.1807 19.51 15.1707C18.83 15.1707 18.222 15.4537 17.695 16.0287C16.922 16.8707 15.345 17.8787 13.445 17.9497C11.847 18.0087 10.36 17.4017 9.02197 16.1447C7.37797 14.6007 6.86697 12.1287 7.71997 9.84772C8.55397 7.61772 10.472 6.23172 12.851 6.14072L12.895 6.13672C12.919 6.13372 15.197 5.87872 17.22 7.68472C17.39 7.86972 18.374 8.88172 19.695 8.91272C20.518 8.93072 21.281 8.57672 21.965 7.85772C22.567 7.22572 22.835 6.51572 22.762 5.74572C22.608 4.13572 20.956 2.86972 20.732 2.70572C20.52 2.52172 18.854 1.12772 16.256 0.411719C13.736 -0.283281 9.83597 -0.441281 5.57097 2.76072C5.37713 2.91452 5.19122 3.07806 5.01397 3.25072C4.73397 3.45872 4.49097 3.71272 4.29797 4.00372C2.20769 6.39961 1.11165 9.50352 1.23397 12.6807C1.44097 18.9637 6.49897 21.9737 6.87997 22.1907C7.14197 22.3607 9.78597 24.0007 13.375 23.9997C15.481 23.9997 17.913 23.4347 20.38 21.6777C20.628 21.5397 22.094 20.6657 22.483 19.1577C22.713 18.2637 22.525 17.3427 21.921 16.4207L21.875 16.3607ZM4.94297 18.3307C4.94297 17.2407 5.82997 16.3537 6.91997 16.3537C8.00997 16.3537 8.89697 17.2397 8.89697 18.3307C8.89697 19.4207 8.00997 20.3077 6.91997 20.3077C5.82997 20.3077 4.94297 19.4207 4.94297 18.3307ZM5.08197 4.67372C5.31797 4.39872 5.53297 4.17572 5.70997 4.00372C6.03231 3.78926 6.41081 3.67481 6.79797 3.67472C7.88797 3.67472 8.77497 4.56172 8.77497 5.65172C8.77497 6.74172 7.88797 7.62972 6.79797 7.62972C5.70797 7.62972 4.82097 6.74272 4.82097 5.65272C4.82097 5.29672 4.91697 4.96272 5.08197 4.67472V4.67372ZM13.249 0.998719C17.203 0.998719 19.906 3.33472 20.075 3.48472L20.118 3.51872C20.538 3.81872 21.65 4.81972 21.748 5.84272C21.792 6.31172 21.622 6.74072 21.228 7.15572C20.751 7.65572 20.245 7.90772 19.724 7.89372C18.76 7.87472 17.981 7.00672 17.964 6.98872L17.922 6.94472C15.63 4.88172 13.092 5.08972 12.792 5.12272C11.7382 5.1589 10.7072 5.43889 9.77997 5.94072C9.84941 5.21171 9.64981 4.48248 9.21878 3.89046C8.78776 3.29844 8.15507 2.88453 7.43997 2.72672C9.54297 1.44972 11.517 0.998719 13.249 0.998719ZM3.88397 6.33972C4.03916 6.99635 4.41116 7.5815 4.93991 8.00065C5.46865 8.4198 6.12325 8.64847 6.79797 8.64972C6.91997 8.64972 7.03797 8.63972 7.15597 8.62572C7.0074 8.90566 6.87713 9.19493 6.76597 9.49172C6.01597 11.4947 6.17597 13.6317 7.12497 15.3457C7.05697 15.3407 6.98897 15.3357 6.91997 15.3357C6.19462 15.337 5.49432 15.6011 4.94879 16.0792C4.40326 16.5572 4.04947 17.2168 3.95297 17.9357C2.902 16.3672 2.31295 14.5349 2.25297 12.6477C2.17264 10.4311 2.739 8.23902 3.88297 6.33872L3.88397 6.33972ZM21.497 18.8997C21.197 20.0737 19.882 20.7897 19.87 20.7957L19.812 20.8317C13.525 25.3307 7.67497 21.4987 7.42997 21.3337L7.39397 21.3117C7.38259 21.3051 7.37126 21.2985 7.35997 21.2917C8.11524 21.1788 8.79894 20.7818 9.27153 20.182C9.74411 19.5821 9.96996 18.8244 9.90297 18.0637C11.027 18.7037 12.239 19.0147 13.483 18.9697C15.697 18.8867 17.54 17.7057 18.445 16.7197C18.772 16.3637 19.115 16.1897 19.493 16.1897H19.498C20.26 16.1937 20.958 16.8777 21.091 17.0157C21.512 17.6737 21.649 18.3067 21.497 18.8997Z" />
</g>
<defs>
<clipPath id="clip0_269_142">
<rect width="24" height="24" fill="white"/>
</clipPath>
</defs>
</svg>
