<svg viewBox="0 0 28 28" fill="none" xmlns="http://www.w3.org/2000/svg">
<path d="M14 28C21.732 28 28 21.732 28 14C28 6.26801 21.732 0 14 0C6.26801 0 0 6.26801 0 14C0 21.732 6.26801 28 14 28Z" fill="#DD2E44"/>
<path d="M14 24.5C19.799 24.5 24.5 19.799 24.5 14C24.5 8.20101 19.799 3.5 14 3.5C8.20101 3.5 3.5 8.20101 3.5 14C3.5 19.799 8.20101 24.5 14 24.5Z" fill="white"/>
<path d="M14 21.7772C18.2956 21.7772 21.7778 18.295 21.7778 13.9995C21.7778 9.70391 18.2956 6.22168 14 6.22168C9.70446 6.22168 6.22223 9.70391 6.22223 13.9995C6.22223 18.295 9.70446 21.7772 14 21.7772Z" fill="#DD2E44"/>
<path d="M14 18.6663C16.5773 18.6663 18.6666 16.577 18.6666 13.9997C18.6666 11.4223 16.5773 9.33301 14 9.33301C11.4227 9.33301 9.33331 11.4223 9.33331 13.9997C9.33331 16.577 11.4227 18.6663 14 18.6663Z" fill="white"/>
<path d="M14 16.3337C15.2887 16.3337 16.3334 15.289 16.3334 14.0003C16.3334 12.7117 15.2887 11.667 14 11.667C12.7114 11.667 11.6667 12.7117 11.6667 14.0003C11.6667 15.289 12.7114 16.3337 14 16.3337Z" fill="#DD2E44"/>
<path opacity="0.2" d="M14.1867 14.2197L24.4098 23.3617C24.4098 23.3617 22.351 25.9875 18.2731 27.3354L13.6725 14.3271L14.1867 14.2197Z" />
<path d="M14.2287 14.7773C14.0303 14.7773 13.8328 14.7018 13.6811 14.5502C13.3786 14.2476 13.3786 13.7584 13.6811 13.4558L14.119 13.0179C14.4216 12.7154 14.9108 12.7154 15.2141 13.0179C15.5159 13.3205 15.5159 13.8097 15.2141 14.1123L14.7754 14.5502C14.6246 14.7018 14.427 14.7773 14.2287 14.7773Z" fill="#FFAC33"/>
<path d="M18.6791 5.42952C18.3657 7.04652 18.6791 9.07808 18.6791 9.07808L24.1655 3.33186C24.3919 2.20097 23.7549 0.273633 22.8293 0.0356335C21.9038 -0.202367 19.6568 0.660189 18.6791 5.42952ZM22.5703 9.32075C20.9533 9.63419 18.9218 9.32075 18.9218 9.32075L24.668 3.8343C25.7989 3.60797 27.7262 4.24497 27.9642 5.17052C28.2022 6.09608 27.3397 8.34308 22.5703 9.32075Z" fill="#55ACEE"/>
<path d="M25.5096 3.48842L16.4702 13.6789C16.1887 13.9604 15.169 14.3649 14.518 13.7146C13.8678 13.0644 14.1921 12.0969 14.4737 11.8145L24.745 2.72309C24.745 2.72309 25.2708 2.2292 25.6464 2.60487C26.0221 2.98053 25.5096 3.48842 25.5096 3.48842Z" fill="#3A87C2"/>
</svg>
