<svg viewBox="0 0 28 28" fill="none" xmlns="http://www.w3.org/2000/svg">
<path d="M28 24.8889C28 26.607 26.607 28 24.8889 28H3.11111C1.393 28 0 26.607 0 24.8889V3.11111C0 1.393 1.393 0 3.11111 0H24.8889C26.607 0 28 1.393 28 3.11111V24.8889Z" fill="#9266CC"/>
<path d="M20.5831 13.9987C22.8294 12.0317 24.1524 10.018 23.3785 8.6577C22.9896 7.97559 22.1908 7.62948 21.0047 7.62948C19.9951 7.62948 18.7017 7.89859 17.2752 8.37148C16.681 5.39959 15.5812 3.20703 14 3.20703C12.4188 3.20703 11.319 5.39959 10.7248 8.37148C9.29836 7.89859 8.00491 7.62948 6.99536 7.62948C5.81002 7.62948 5.01047 7.97559 4.62158 8.65848C3.84769 10.018 5.17069 12.0317 7.41691 13.9987C5.17069 15.9657 3.84769 17.9794 4.62158 19.3397C5.01047 20.0218 5.80925 20.3679 6.99536 20.3679C8.00491 20.3679 9.29836 20.0988 10.7248 19.6259C11.319 22.5978 12.4188 24.7904 14 24.7904C15.5812 24.7904 16.681 22.5978 17.2752 19.6259C18.7017 20.0988 19.9951 20.3679 21.0047 20.3679C22.19 20.3679 22.9896 20.0218 23.3785 19.3389C24.1524 17.9794 22.8286 15.9657 20.5831 13.9987ZM21.0047 8.99059C21.6285 8.99059 22.0734 9.11814 22.1947 9.33125C22.4646 9.80492 21.6316 11.2959 19.5129 13.1221C18.9475 12.6835 18.347 12.2526 17.7186 11.8373C17.6704 11.1139 17.5972 10.4054 17.5016 9.7217C18.8596 9.25348 20.0752 8.99059 21.0047 8.99059ZM15.2032 16.1104C14.8011 16.339 14.3998 16.556 14 16.7621C13.6002 16.556 13.1989 16.3398 12.7968 16.1104C12.376 15.8708 11.9825 15.6313 11.6021 15.3925C11.5835 14.9437 11.5695 14.4833 11.5695 13.9987C11.5695 13.5141 11.5827 13.0537 11.6021 12.6049C11.9832 12.3661 12.376 12.1266 12.7968 11.887C13.1989 11.6584 13.6002 11.4414 14 11.2353C14.3998 11.4414 14.8011 11.6576 15.2032 11.887C15.624 12.1266 16.0176 12.3661 16.3979 12.6049C16.4166 13.0537 16.4306 13.5141 16.4306 13.9987C16.4306 14.4833 16.4174 14.9437 16.3979 15.3925C16.0176 15.6313 15.624 15.8708 15.2032 16.1104ZM16.2836 17.053C16.2587 17.305 16.2291 17.5454 16.198 17.7834C15.9748 17.6916 15.7469 17.5881 15.5198 17.4863C15.6388 17.4209 15.757 17.361 15.876 17.2934C16.0137 17.2156 16.1475 17.1331 16.2836 17.053ZM12.4802 17.4863C12.2531 17.5874 12.0245 17.6908 11.802 17.7834C11.7717 17.5454 11.7421 17.305 11.7165 17.0538C11.8526 17.1339 11.9871 17.2164 12.124 17.2941C12.2422 17.361 12.3612 17.4209 12.4802 17.4863ZM10.2154 14.4716C9.99136 14.3121 9.77902 14.155 9.57291 13.9987C9.77902 13.8424 9.99136 13.6853 10.2154 13.5258C10.213 13.6837 10.2084 13.8408 10.2084 13.9987C10.2084 14.1566 10.213 14.3137 10.2154 14.4716ZM11.7165 10.9444C11.7414 10.6924 11.7709 10.452 11.802 10.2148C12.0252 10.3066 12.2531 10.41 12.4802 10.5119C12.3612 10.5773 12.243 10.6371 12.124 10.7048C11.9864 10.7818 11.8526 10.8643 11.7165 10.9444ZM15.5198 10.5111C15.7469 10.41 15.9756 10.3066 16.198 10.214C16.2284 10.452 16.2579 10.6924 16.2836 10.9444C16.1475 10.8643 16.0129 10.7818 15.876 10.704C15.7578 10.6364 15.6388 10.5765 15.5198 10.5111ZM17.7847 13.5258C18.0087 13.6853 18.221 13.8424 18.4271 13.9987C18.221 14.155 18.0087 14.3121 17.7847 14.4716C17.787 14.3137 17.7917 14.1566 17.7917 13.9987C17.7917 13.8408 17.787 13.6837 17.7847 13.5258ZM14 4.56814C14.5491 4.56814 15.4428 6.05214 15.9802 8.84125C15.3347 9.09792 14.6712 9.39581 14 9.7217C13.3288 9.39503 12.6654 9.09714 12.0198 8.84125C12.5572 6.05214 13.4509 4.56814 14 4.56814ZM5.80536 9.33203C5.92669 9.11814 6.37236 8.99059 6.99536 8.99059C7.92402 8.99059 9.14047 9.25425 10.4985 9.7217C10.4028 10.4054 10.3289 11.1139 10.2815 11.8373C9.65302 12.2526 9.05258 12.6835 8.48713 13.1221C6.36847 11.2959 5.53547 9.80492 5.80536 9.33203ZM6.99536 19.0068C6.37158 19.0068 5.92669 18.8793 5.80536 18.6661C5.53547 18.1925 6.36847 16.7015 8.48713 14.8753C9.05258 15.3139 9.65302 15.7448 10.2815 16.1601C10.3297 16.8835 10.4028 17.592 10.4985 18.2757C9.14047 18.7439 7.9248 19.0068 6.99536 19.0068ZM14 23.4293C13.4509 23.4293 12.5572 21.9453 12.0198 19.1561C12.6654 18.8995 13.3288 18.6016 14 18.2757C14.6712 18.6024 15.3347 18.9003 15.9802 19.1561C15.4428 21.9453 14.5491 23.4293 14 23.4293ZM22.1947 18.6654C22.0734 18.8793 21.6277 19.0068 21.0047 19.0068C20.076 19.0068 18.8596 18.7431 17.5016 18.2757C17.5972 17.592 17.6711 16.8835 17.7186 16.1601C18.347 15.7448 18.9475 15.3139 19.5129 14.8753C21.6316 16.7015 22.4646 18.1925 22.1947 18.6654Z" fill="white"/>
<path d="M14 12.8984C13.3925 12.8984 12.9002 13.3908 12.9002 13.9982C12.9002 14.6057 13.3925 15.098 14 15.098C14.6074 15.098 15.0998 14.6057 15.0998 13.9982C15.0998 13.3908 14.6074 12.8984 14 12.8984Z" fill="white"/>
</svg>
