<svg width="24" height="24" viewBox="0 0 24 24" fill="none" xmlns="http://www.w3.org/2000/svg">
<g clip-path="url(#clip0_269_156)">
<path d="M23.546 10.93L13.067 0.451973C12.7765 0.162522 12.3831 0 11.973 0C11.5629 0 11.1695 0.162522 10.879 0.451973L8.708 2.62697L11.468 5.38697C11.7936 5.27666 12.1437 5.25988 12.4783 5.33856C12.813 5.41723 13.1189 5.58819 13.3613 5.83203C13.6037 6.07586 13.7728 6.38279 13.8495 6.71794C13.9261 7.05308 13.9073 7.40302 13.795 7.72797L16.453 10.388C16.8464 10.2512 17.2745 10.2521 17.6673 10.3905C18.0602 10.5288 18.3943 10.7965 18.6151 11.1497C18.8359 11.5028 18.9302 11.9204 18.8826 12.3342C18.835 12.7479 18.6482 13.1332 18.353 13.427C18.1824 13.5979 17.9797 13.7334 17.7567 13.8259C17.5336 13.9184 17.2945 13.9661 17.053 13.9661C16.8115 13.9661 16.5724 13.9184 16.3493 13.8259C16.1263 13.7334 15.9236 13.5979 15.753 13.427C15.4973 13.1706 15.3227 12.8446 15.2509 12.4897C15.179 12.1348 15.2132 11.7666 15.349 11.431L12.86 8.95497V15.48C13.036 15.566 13.202 15.683 13.348 15.828C13.6905 16.174 13.8826 16.6411 13.8826 17.128C13.8826 17.6148 13.6905 18.082 13.348 18.428C13.1767 18.5994 12.9734 18.7354 12.7496 18.8281C12.5257 18.9209 12.2858 18.9687 12.0435 18.9687C11.8012 18.9687 11.5613 18.9209 11.3374 18.8281C11.1136 18.7354 10.9103 18.5994 10.739 18.428C10.568 18.2576 10.4324 18.0551 10.3399 17.8322C10.2473 17.6093 10.1997 17.3703 10.1997 17.129C10.1997 16.8876 10.2473 16.6486 10.3399 16.4257C10.4324 16.2028 10.568 16.0004 10.739 15.83C10.921 15.65 11.126 15.514 11.344 15.424V8.83497C11.1195 8.7432 10.9155 8.60782 10.7436 8.43666C10.5718 8.2655 10.4357 8.06197 10.343 7.83784C10.2504 7.6137 10.2032 7.37343 10.204 7.13091C10.2049 6.88839 10.2538 6.64845 10.348 6.42497L7.636 3.69997L0.45 10.881C-0.15 11.486 -0.15 12.465 0.45 13.07L10.93 23.547C11.0735 23.6906 11.2439 23.8045 11.4314 23.8823C11.619 23.96 11.82 24 12.023 24C12.226 24 12.427 23.96 12.6146 23.8823C12.8021 23.8045 12.9725 23.6906 13.116 23.547L23.546 13.117C23.6899 12.9735 23.8041 12.8031 23.882 12.6155C23.9599 12.4278 24 12.2266 24 12.0235C24 11.8203 23.9599 11.6191 23.882 11.4315C23.8041 11.2438 23.6899 11.0734 23.546 10.93Z" fill="black"/>
</g>
<defs>
<clipPath id="clip0_269_156">
<rect width="24" height="24" fill="white"/>
</clipPath>
</defs>
</svg>
