<svg width="24" height="24" viewBox="0 0 24 24" fill="none" xmlns="http://www.w3.org/2000/svg">
<g clip-path="url(#clip0_269_146)">
<path d="M11.886 9.769C13.533 9.769 14.836 10.205 15.798 11.076C16.759 11.948 17.24 13.136 17.24 14.642C17.24 16.386 16.692 17.749 15.597 18.732C14.509 19.709 12.959 20.197 10.947 20.197C9.121 20.197 7.687 19.903 6.644 19.314V16.934C7.29606 17.2952 7.99602 17.5622 8.723 17.727C9.505 17.913 10.232 18.007 10.903 18.007C12.087 18.007 12.989 17.742 13.607 17.213C14.226 16.683 14.535 15.909 14.535 14.888C14.535 12.936 13.29 11.959 10.802 11.959C10.452 11.959 10.019 11.997 9.505 12.071C8.991 12.138 8.54 12.216 8.153 12.306L6.979 11.613L7.605 3.633H16.1V5.968H9.919L9.549 10.014C9.811 9.97 10.127 9.918 10.499 9.858C10.879 9.798 11.342 9.768 11.886 9.768V9.769ZM12 0C5.373 0 0 5.373 0 12C0.000400509 14.2312 0.62293 16.418 1.79765 18.3149C2.97237 20.2117 4.65275 21.7435 6.65 22.738V19.063H6.788C6.798 19.067 11.648 21.529 14.809 19.063C17.972 16.595 16.429 13.278 15.889 12.506C15.349 11.735 12.572 10.423 10.181 10.655C7.79 10.886 7.79 10.963 7.79 10.963L8.407 3.867L16.094 3.793V0.744C14.7828 0.25937 13.3969 0.00758391 11.999 0L12 0ZM16.094 0.744V3.793L8.407 3.867L7.79 10.963C7.79 10.963 7.79 10.886 10.181 10.655C12.573 10.423 15.35 11.735 15.889 12.506C16.429 13.278 17.972 16.595 14.809 19.063C11.649 21.53 6.795 19.067 6.788 19.063H6.65V22.738C8.31197 23.5671 10.1427 23.9991 12 24C18.628 24 24 18.627 24 12C23.9963 9.58473 23.2642 7.22672 21.8994 5.23399C20.5347 3.24125 18.6007 1.70643 16.35 0.83C16.2655 0.799988 16.1794 0.771318 16.094 0.744Z" fill="black"/>
</g>
<defs>
<clipPath id="clip0_269_146">
<rect width="24" height="24" fill="white"/>
</clipPath>
</defs>
</svg>
