<svg viewBox="0 0 28 28" fill="none" xmlns="http://www.w3.org/2000/svg">
<path d="M28 24.8884C28 26.6065 26.607 27.9995 24.8889 27.9995H3.11111C1.393 27.9995 0 26.6065 0 24.8884V10.8884C0 9.17034 1.393 7.77734 3.11111 7.77734H24.8889C26.607 7.77734 28 9.17034 28 10.8884V24.8884Z" fill="#CCD6DD"/>
<path d="M9.29446 17.605L0.495458 26.404C0.474458 26.4258 0.46668 26.453 0.448792 26.4748C0.713236 26.9181 1.0819 27.286 1.52524 27.5512C1.54779 27.5334 1.57424 27.5256 1.59524 27.5046L10.395 18.7048C10.6983 18.4007 10.6983 17.9091 10.395 17.605C10.0901 17.3009 9.59857 17.3009 9.29446 17.605ZM27.5512 26.4748C27.5349 26.453 27.5256 26.4258 27.5046 26.4048L18.7063 17.605C18.4015 17.3009 17.9099 17.3009 17.6058 17.605C17.3017 17.9099 17.3017 18.4015 17.6058 18.7048L26.4048 27.5046C26.425 27.5248 26.453 27.5334 26.4748 27.5512C26.9189 27.2868 27.2868 26.9181 27.5512 26.4748Z" fill="#99AAB5"/>
<path d="M24.8889 7.77734H3.11111C1.393 7.77734 0 9.17034 0 10.8884V11.6896L11.2996 22.9642C12.7727 24.4373 15.1791 24.4373 16.6538 22.9642L28 11.6732V10.8884C28 9.17034 26.607 7.77734 24.8889 7.77734Z" fill="#99AAB5"/>
<path d="M24.8889 7.77734H3.11111C1.876 7.77734 0.817447 8.50379 0.315002 9.54678L11.7997 21.0322C13.0146 22.2471 14.9854 22.2471 16.1996 21.0322L27.685 9.54678C27.1826 8.50379 26.1248 7.77734 24.8889 7.77734Z" fill="#E1E8ED"/>
<path d="M20.7791 5.44444H17.1111V1.55555C17.1111 0.696888 16.415 0 15.5556 0H12.4444C11.5858 0 10.8889 0.696888 10.8889 1.55555V5.44444H7.11511C6.16389 5.44444 5.93678 5.92977 6.60878 6.60254L12.7244 12.7182C13.3972 13.391 14.4978 13.391 15.1706 12.7182L21.2862 6.60254C21.9582 5.92977 21.7311 5.44444 20.7791 5.44444Z" fill="#55ACEE"/>
</svg>
