<svg xmlns="http://www.w3.org/2000/svg" viewBox="0 0 112.38 51.71">
<defs>
<style>.cls-1{fill:#7050d8;}</style>
</defs>
<g id="Capa_2" data-name="Capa 2">
<g id="Capa_3" data-name="Capa 3">
<path class="cls-1" d="M108.26,41.39a9.91,9.91,0,0,1-.74,3.69,8,8,0,0,1-2.6,3.31,14.81,14.81,0,0,1-5.06,2.39,29.47,29.47,0,0,1-8.12.93,30.13,30.13,0,0,1-5.92-.49,11.66,11.66,0,0,1-3.72-1.36,5,5,0,0,1-1.93-2,5.62,5.62,0,0,1-.54-2.44,5,5,0,0,1,.49-2.29,5.29,5.29,0,0,1,1.33-1.68,7.4,7.4,0,0,1,2-1.17,18.51,18.51,0,0,1,2.45-.78V39.1a3.74,3.74,0,0,1-2.39-1.43A4.41,4.41,0,0,1,82.67,35a4.36,4.36,0,0,1,.52-2.15A6.83,6.83,0,0,1,84.63,31a7.26,7.26,0,0,1,2-1.19A15.12,15.12,0,0,1,89,29l.06-.38A7.15,7.15,0,0,1,85.9,26a7.25,7.25,0,0,1-1.06-4.29,10.28,10.28,0,0,1,.77-3.39A9.23,9.23,0,0,1,88,14.88a12.22,12.22,0,0,1,4.12-2.45,17.62,17.62,0,0,1,6-.92c.94,0,3.66,0,4.87.67l.29-1.7a5.63,5.63,0,0,1,1.63-3.29,4.74,4.74,0,0,1,3.15-1h4.29l-1,6h-5.93l-.13.73a6.84,6.84,0,0,1,2.46,2.67,8.1,8.1,0,0,1,.9,3.94,10.46,10.46,0,0,1-.76,3.88,9.35,9.35,0,0,1-2.39,3.45,11.74,11.74,0,0,1-4.1,2.25,17.68,17.68,0,0,1-6,.92,15.75,15.75,0,0,1-4.4-.54,3.63,3.63,0,0,0-1.5,1.08,3.07,3.07,0,0,0-.62,1.77c0,1.2,1,1.69,2.88,1.69h7C105.11,34,108.26,36.53,108.26,41.39ZM100.65,43a1.75,1.75,0,0,0-.81-1.58,5.5,5.5,0,0,0-3-.6H87.4a2.78,2.78,0,0,0-1.14,1.28,4.28,4.28,0,0,0-.33,1.55A2.38,2.38,0,0,0,87,45.73a6.91,6.91,0,0,0,3.8.76h3.53c2.39,0,4-.34,4.94-1A3,3,0,0,0,100.65,43ZM96,24.33a5.53,5.53,0,0,0,3.54-1,4.4,4.4,0,0,0,1.84-3.13c0-2-1.32-3-4-3a5.72,5.72,0,0,0-3.53,1,4,4,0,0,0-1.85,3.13C92.08,23.32,93.39,24.33,96,24.33ZM82.75,0H66.21l-1,6.19h8.57l-1.82,11h-.41a7.72,7.72,0,0,0-2.15-4.1,6.46,6.46,0,0,0-4.75-1.55,10.62,10.62,0,0,0-5.3,1.33,12,12,0,0,0-4,3.72,18.54,18.54,0,0,0-2.5,5.73A29.45,29.45,0,0,0,52,29.71a26,26,0,0,0,.38,4.62,9.75,9.75,0,0,0,1.31,3.5A6.39,6.39,0,0,0,56,40.06a7.82,7.82,0,0,0,3.69.78,8.7,8.7,0,0,0,3.21-.54,8,8,0,0,0,2.41-1.53,11.66,11.66,0,0,0,1.91-2.33,32.59,32.59,0,0,0,1.65-2.93h.27l-.11.66a5,5,0,0,0,1.12,4.49,6.35,6.35,0,0,0,4.64,1.53H78.9l1-6.19H77ZM71.07,22.29l-.76,4.48c-.94,4.7-3.4,8.43-7,8.43a3.12,3.12,0,0,1-2.61-1.9A7,7,0,0,1,60,30q0-.75.06-1.38a7.82,7.82,0,0,1,.16-1.1l.54-3.24a10.42,10.42,0,0,1,2-4.89,5.74,5.74,0,0,1,4.4-2.24,4.31,4.31,0,0,1,3.45,1.73A4.27,4.27,0,0,1,71.07,22.29ZM45.93,34,48.1,23.16c.18-.83.34-1.65.47-2.46a17,17,0,0,0,.18-2.47,6.74,6.74,0,0,0-1.65-4.87,5.85,5.85,0,0,0-4.75-1.85,8.2,8.2,0,0,0-5.71,2,15.55,15.55,0,0,0-3.71,4.89h-.38a7.15,7.15,0,0,0-1.72-5A6,6,0,0,0,26,11.51a7.94,7.94,0,0,0-5.49,1.88,14.8,14.8,0,0,0-3.75,5h-.32l1.25-6.2H1.26L0,18.36H8.86L4.45,40.19H12L15,25.53A12.61,12.61,0,0,1,17.58,20a8.91,8.91,0,0,1,2-1.87,4.49,4.49,0,0,1,2.53-.73,2.27,2.27,0,0,1,2,.79,3.58,3.58,0,0,1,.57,2.14,10.24,10.24,0,0,1-.11,1.41c-.07.51-.16,1-.27,1.52l-3.43,17h7.63l3-14.66a12.44,12.44,0,0,1,1-3,11.27,11.27,0,0,1,1.63-2.61,9.32,9.32,0,0,1,2.06-1.82,4.35,4.35,0,0,1,2.39-.73,2.07,2.07,0,0,1,1.82.79,3.43,3.43,0,0,1,.65,2,12,12,0,0,1-.13,1.5c-.09.51-2.61,12.82-2.61,12.82s-.07.36-.11.63a8.08,8.08,0,0,0,0,.89,4,4,0,0,0,1.19,3,4.77,4.77,0,0,0,3.37,1.11h4.94L48.86,34Zm0,0L48.1,23.16c.18-.83.34-1.65.47-2.46a17,17,0,0,0,.18-2.47,6.74,6.74,0,0,0-1.65-4.87,5.85,5.85,0,0,0-4.75-1.85,8.2,8.2,0,0,0-5.71,2,15.55,15.55,0,0,0-3.71,4.89h-.38a7.15,7.15,0,0,0-1.72-5A6,6,0,0,0,26,11.51a7.94,7.94,0,0,0-5.49,1.88,14.8,14.8,0,0,0-3.75,5h-.32l1.25-6.2H1.26L0,18.36H8.86L4.45,40.19H12L15,25.53A12.61,12.61,0,0,1,17.58,20a8.91,8.91,0,0,1,2-1.87,4.49,4.49,0,0,1,2.53-.73,2.27,2.27,0,0,1,2,.79,3.58,3.58,0,0,1,.57,2.14,10.24,10.24,0,0,1-.11,1.41c-.07.51-.16,1-.27,1.52l-3.43,17h7.63l3-14.66a12.44,12.44,0,0,1,1-3,11.27,11.27,0,0,1,1.63-2.61,9.32,9.32,0,0,1,2.06-1.82,4.35,4.35,0,0,1,2.39-.73,2.07,2.07,0,0,1,1.82.79,3.43,3.43,0,0,1,.65,2,12,12,0,0,1-.13,1.5c-.09.51-2.61,12.82-2.61,12.82s-.07.36-.11.63a8.08,8.08,0,0,0,0,.89,4,4,0,0,0,1.19,3,4.77,4.77,0,0,0,3.37,1.11h4.94L48.86,34Z"/>
</g>
</g>
</svg>