<svg xmlns="http://www.w3.org/2000/svg" viewBox="0 0 853.1 70"><defs><style>.cls-1{fill:#1d1d1b;}</style></defs><g id="Capa_2" data-name="Capa 2"><g id="Capa_1-2" data-name="Capa 1"><path class="cls-1" d="M100.5,70a12.26,12.26,0,0,1-6.1-1.3,11.75,11.75,0,0,1-4-3.7,18,18,0,0,1-2.2-5.8,44.21,44.21,0,0,1-.6-7.6A52,52,0,0,1,89,39.3a30.63,30.63,0,0,1,4.1-9.5,20.5,20.5,0,0,1,6.6-6.2,17.17,17.17,0,0,1,8.8-2.2c3.5,0,6.2.9,7.9,2.6a13,13,0,0,1,3.6,6.8h.7l1.4-8.3h13.1l-6.1,36.2h4.8L132.2,69h-6.7c-3.4,0-6-.8-7.7-2.5s-2.3-4.2-1.8-7.4l.2-1.1h-.4c-.9,1.8-1.8,3.4-2.7,4.9a17.55,17.55,0,0,1-3.2,3.9,12.83,12.83,0,0,1-4,2.5A21.45,21.45,0,0,1,100.5,70Zm5.9-9.4c6,0,10.1-6.2,11.6-14l1.3-7.4c.4-2.4.1-4.3-.9-5.6a7.19,7.19,0,0,0-5.7-2.9,9.5,9.5,0,0,0-7.3,3.7c-1.6,1.9-2.6,4.6-3.2,8.1l-.9,5.4q-.15.75-.3,1.8a16.22,16.22,0,0,0-.1,2.3,11.75,11.75,0,0,0,1.2,5.5C102.9,59,104.3,60.6,106.4,60.6ZM254.2,70a12.26,12.26,0,0,1-6.1-1.3,11.75,11.75,0,0,1-4-3.7,18,18,0,0,1-2.2-5.8,44.21,44.21,0,0,1-.6-7.6,52,52,0,0,1,1.4-12.3,30.63,30.63,0,0,1,4.1-9.5,20.5,20.5,0,0,1,6.6-6.2,17.17,17.17,0,0,1,8.8-2.2c3.5,0,6.2.9,7.9,2.6a13,13,0,0,1,3.6,6.8h.7l1.4-8.3h13.1l-6.1,36.2h4.8L285.9,69h-6.7c-3.4,0-6-.8-7.7-2.5s-2.3-4.2-1.8-7.4l.2-1.1h-.4c-.9,1.8-1.8,3.4-2.7,4.9a17.55,17.55,0,0,1-3.2,3.9,12.83,12.83,0,0,1-4,2.5A22.09,22.09,0,0,1,254.2,70Zm5.9-9.4c6,0,10.1-6.2,11.6-14l1.3-7.4c.4-2.4.1-4.3-.9-5.6a7.19,7.19,0,0,0-5.7-2.9,9.5,9.5,0,0,0-7.3,3.7c-1.6,1.9-2.6,4.6-3.2,8.1l-.9,5.4q-.15.75-.3,1.8a16.22,16.22,0,0,0-.1,2.3,11.75,11.75,0,0,0,1.2,5.5C256.6,59,258,60.6,260.1,60.6ZM640.9,70a12.26,12.26,0,0,1-6.1-1.3,11.75,11.75,0,0,1-4-3.7,18,18,0,0,1-2.2-5.8,44.21,44.21,0,0,1-.6-7.6,52,52,0,0,1,1.4-12.3,30.63,30.63,0,0,1,4.1-9.5,20.5,20.5,0,0,1,6.6-6.2,17.17,17.17,0,0,1,8.8-2.2c3.5,0,6.2.9,7.9,2.6a13,13,0,0,1,3.6,6.8h.7l1.4-8.3h13.1l-6.1,36.2h4.8L672.6,69h-6.7c-3.4,0-6-.8-7.7-2.5s-2.3-4.2-1.8-7.4l.2-1.1h-.4c-.9,1.8-1.8,3.4-2.7,4.9a17.55,17.55,0,0,1-3.2,3.9,12.83,12.83,0,0,1-4,2.5A22.09,22.09,0,0,1,640.9,70Zm5.9-9.4c6,0,10.1-6.2,11.6-14l1.3-7.4c.4-2.4.1-4.3-.9-5.6a7.19,7.19,0,0,0-5.7-2.9,9.5,9.5,0,0,0-7.3,3.7c-1.6,1.9-2.6,4.6-3.2,8.1l-.9,5.4q-.15.75-.3,1.8a16.22,16.22,0,0,0-.1,2.3,11.75,11.75,0,0,0,1.2,5.5C643.3,59,644.7,60.6,646.8,60.6ZM146.4,68.9l6-36.2H141.8l1.7-10.3h23.8l-2.3,14h.5c1.9-4.4,4.2-7.9,7.2-10.3s6.7-4.8,11.2-4.8H187l-2.3,14.2h-8.2a13.92,13.92,0,0,0-5.9,1,10.23,10.23,0,0,0-3.8,3.1,19.17,19.17,0,0,0-2.1,3.3,16.35,16.35,0,0,0-1.6,4.7l-3.5,21.2H146.4ZM214,70c-11.9,0-11.2-9.4-10.5-13.8.2-1,.4-2.4.7-4.2l3.3-19.3H193.3L195,22.4h27.4l-6.2,36.8,1.5.4,11.9-12.8,7.2,6.4-5.5,6.3a44.24,44.24,0,0,1-8.6,7.7A14.35,14.35,0,0,1,214,70Zm3.7-55c-2.7,0-4.6-.5-5.7-1.6a5.38,5.38,0,0,1-1.7-3.9,5.74,5.74,0,0,1,.1-1.2c.1-.5.2-1.3.4-2.4a6.63,6.63,0,0,1,2.4-4.4q2-1.5,6-1.5c2.7,0,4.6.5,5.7,1.6a5.38,5.38,0,0,1,1.7,3.9,5.74,5.74,0,0,1-.1,1.2c-.1.5-.2,1.3-.4,2.4a6.63,6.63,0,0,1-2.4,4.4Q221.75,15,217.7,15ZM429.9,59.8h-.8q-1.2,2.1-2.4,3.9a17.38,17.38,0,0,1-2.8,3.2,12,12,0,0,1-3.6,2.2,13.6,13.6,0,0,1-4.7.8,14.45,14.45,0,0,1-12.2-5.8c-3-3.9-4.5-9.7-4.5-17.3a72.82,72.82,0,0,1,1.8-16.6c1.2-5.1,3.1-13.3,5.5-17.1a28.29,28.29,0,0,1,9.1-8.8,24.57,24.57,0,0,1,12.6-3.2,22.3,22.3,0,0,1,8.5,1.4,16.67,16.67,0,0,1,6,3.8,18.14,18.14,0,0,1,3.8,5.9c.9,2.3,1.1,5.7,1.1,10.2H434.6a21.45,21.45,0,0,0-.2-4,9.9,9.9,0,0,0-1.3-3.3,7.56,7.56,0,0,0-2.4-2.3,7.37,7.37,0,0,0-3.8-.9,9,9,0,0,0-8,4.3c-1.9,2.9-3.3,10.5-4.1,15.4l-1.5,9.2c-.2,1.1-.3,2.4-.5,3.8s-.2,2.8-.2,4a13.16,13.16,0,0,0,2,7.6c1.3,1.9,3.5,2.8,6.3,2.8a9.57,9.57,0,0,0,7.5-3,14,14,0,0,0,3.4-7l1.1-7H421.8l1.5-9.4h22.9l-5.9,36.1H428.5ZM829.1,70c-6.9,0-12-1.8-15.3-5.3s-5-8.4-5-14.5a34.37,34.37,0,0,1,2-11.8,27.69,27.69,0,0,1,5.5-9.1,23.37,23.37,0,0,1,8.6-5.8,29,29,0,0,1,11.2-2.1,28.4,28.4,0,0,1,6.6.8,14.82,14.82,0,0,1,5.4,2.4,10.91,10.91,0,0,1,3.7,4,11.3,11.3,0,0,1,1.3,5.6,14.12,14.12,0,0,1-1.2,5.6,11.92,11.92,0,0,1-4.5,5.1,32,32,0,0,1-9.5,3.9,79.78,79.78,0,0,1-16.1,1.9,3.08,3.08,0,0,0-.1.9v.7a7.79,7.79,0,0,0,2.1,5.8c1.4,1.3,3.7,2,6.8,2a12.94,12.94,0,0,0,3.5-.4,10.27,10.27,0,0,0,3.1-1.3,15.77,15.77,0,0,0,3-2.4,47.51,47.51,0,0,0,3.3-3.8l8.2,5.3a46.57,46.57,0,0,1-3.9,4.9,23.2,23.2,0,0,1-4.8,4,19.88,19.88,0,0,1-6.1,2.7A29.87,29.87,0,0,1,829.1,70Zm5.8-39.3a11.32,11.32,0,0,0-7.4,2.6c-2,1.7-3.5,4.6-4.3,8.6l-.3,1.3a53.11,53.11,0,0,0,9.8-1.2,17.57,17.57,0,0,0,5.3-1.9,4.75,4.75,0,0,0,2.2-2.3,6.56,6.56,0,0,0,.4-2.3C840.6,32.2,838.7,30.7,834.9,30.7ZM76,58.7l3.6-18c.3-1.4.6-2.7.8-4.1a28.28,28.28,0,0,0,.3-4.1A11.49,11.49,0,0,0,78,24.4c-1.8-2.1-4.4-3.1-7.9-3.1a13.85,13.85,0,0,0-9.5,3.2,24.34,24.34,0,0,0-6.1,8.1h-.6c-.1-3.8-1-6.1-2.9-8.3s-4.5-3.1-8-3.1a13.4,13.4,0,0,0-9.1,3.1,24.28,24.28,0,0,0-6.2,8.2h-.5l2.1-10.3H2.1L0,32.5H14.7L7.4,68.7H20l4.9-24.3a21.69,21.69,0,0,1,4.3-9.2,12.45,12.45,0,0,1,3.4-3.1,7.39,7.39,0,0,1,4.2-1.2,3.77,3.77,0,0,1,3.3,1.3,6.27,6.27,0,0,1,.9,3.5,19.53,19.53,0,0,1-.2,2.3c-.1.8-.3,1.7-.4,2.5L34.7,68.6H47.3l4.9-24.3a20.67,20.67,0,0,1,1.6-5A19.78,19.78,0,0,1,56.5,35a15.93,15.93,0,0,1,3.4-3,7.46,7.46,0,0,1,4-1.2,3.31,3.31,0,0,1,3,1.3A5.74,5.74,0,0,1,68,35.5c0,.3-.1,1.7-.2,2.5s-4.3,21.2-4.3,21.2a8.66,8.66,0,0,0-.2,1c0,.4-.1.9-.1,1.5a6.55,6.55,0,0,0,2,5,8,8,0,0,0,5.6,1.8H79l2.1-10.3H76Zm450.8.6H526v.8h.8ZM292.5,68.9l7.8-46.4h13.1L312,30.8h.6c4-8.3,11-9.4,16-9.4,10,0,13.8,5.9,12.5,13.4l-4,23.9h4.8L340.2,69h-8.7c-3.9,0-8.8-2.2-7.8-8.3a8.66,8.66,0,0,1,.2-1s3-17.9,3.1-18.9c1.3-7.1-1.6-9.9-4.9-9.9a8.37,8.37,0,0,0-4.3,1.6,14.27,14.27,0,0,0-3.4,3.1,23.62,23.62,0,0,0-2.8,4.2,32.78,32.78,0,0,0-2.3,7.1l-3.7,22.2H292.5ZM367.9,70c-6.4,0-11.3-1.8-14.8-5.4s-5.2-8.4-5.2-14.6a35.14,35.14,0,0,1,1.9-12,27,27,0,0,1,5.4-9,24.12,24.12,0,0,1,8.3-5.7,26.51,26.51,0,0,1,10.7-2c6.4,0,9.5,1.8,13,5.4s5.2,8.4,5.2,14.6a35.14,35.14,0,0,1-1.9,12,27,27,0,0,1-5.4,9,22.83,22.83,0,0,1-8.3,5.7C373.6,69.3,371.8,70,367.9,70Zm.1-9.8a7.92,7.92,0,0,0,6.2-2.6,13.25,13.25,0,0,0,3.6-7.5l1.2-7c.1-.5.2-1.2.3-1.8a12.13,12.13,0,0,0,.1-1.8c0-2.8-.7-4.8-2.1-6.2a6.4,6.4,0,0,0-5-2,7.71,7.71,0,0,0-6.1,2.6,13.25,13.25,0,0,0-3.6,7.5l-1.2,7c-.1.5-.2,1.2-.3,1.8A12.13,12.13,0,0,0,361,52c0,2.8.7,4.8,2.1,6.2A6.18,6.18,0,0,0,368,60.2Zm112.1-2.3h-.7a28.68,28.68,0,0,1-6.6,8.9c-2.3,2.2-5.3,3.2-9,3.2a14.28,14.28,0,0,1-5.8-1.1,10.5,10.5,0,0,1-3.9-2.9,12.7,12.7,0,0,1-2.3-4.3,17,17,0,0,1-.7-5.1c0-1.3.1-2.7.2-4a53.33,53.33,0,0,1,.8-5.3l4.1-24.7h13.1l-4.4,26.3c-.1.8-.3,2.4-.4,3.3a14.67,14.67,0,0,0-.2,3.1,6.8,6.8,0,0,0,.3,1.9,5.08,5.08,0,0,0,.9,1.8,4.53,4.53,0,0,0,1.7,1.3,6.33,6.33,0,0,0,2.6.5,7.24,7.24,0,0,0,4-1.1c5.2-3.1,7.4-7.5,8.3-12.8l4-24.2h13.1l-6.1,36.2h4.8l-1.7,10.3h-4.8C486.5,68.9,478.3,68.3,480.1,57.9Zm228.6,0H708a28.68,28.68,0,0,1-6.6,8.9c-2.3,2.2-5.3,3.2-9,3.2a14.28,14.28,0,0,1-5.8-1.1,10.5,10.5,0,0,1-3.9-2.9,12.7,12.7,0,0,1-2.3-4.3,17,17,0,0,1-.7-5.1c0-1.3.1-2.7.2-4a53.33,53.33,0,0,1,.8-5.3l4.1-24.7h13.1l-4.4,26.3c-.1.8-.3,2.4-.4,3.3a14.67,14.67,0,0,0-.2,3.1,6.8,6.8,0,0,0,.3,1.9,5.08,5.08,0,0,0,.9,1.8,4.53,4.53,0,0,0,1.7,1.3,6.33,6.33,0,0,0,2.6.5,7.24,7.24,0,0,0,4-1.1c5.2-3.1,7.4-7.5,8.3-12.8l4-24.2h13.1l-6.1,36.2h4.8l-1.7,10.3H720C715.1,68.9,706.9,68.3,708.7,57.9ZM564.2,70c-11.9,0-11.2-9.4-10.5-13.8.2-1,.4-2.4.7-4.2L561,12.6H546.8l1.7-10.3h27.4l-9.5,57,1.5.4,11.9-12.8,7.2,6.4-5.5,6.3a44.24,44.24,0,0,1-8.6,7.7A15.39,15.39,0,0,1,564.2,70Zm36.7,0c-11.9,0-11.2-9.4-10.5-13.8.2-1,.4-2.4.7-4.2l6.6-39.4H583.5l1.7-10.3h27.4l-9.5,57,1.5.4,11.9-12.8,7.2,6.4-5.5,6.3a44.24,44.24,0,0,1-8.6,7.7A14.94,14.94,0,0,1,600.9,70Zm-76.3,0c-11.9,0-11.2-9.4-10.5-13.8.2-1,.4-2.4.7-4.2l3.3-19.3H503.9l1.7-10.3H533l-6.2,36.8,1.5.4,11.9-12.8,7.2,6.4-5.5,6.3a44.24,44.24,0,0,1-8.6,7.7A14.78,14.78,0,0,1,524.6,70Zm3.7-55c-2.7,0-4.6-.5-5.7-1.6a5.38,5.38,0,0,1-1.7-3.9,5.74,5.74,0,0,1,.1-1.2c.1-.5.2-1.3.4-2.4a6.63,6.63,0,0,1,2.4-4.4q2-1.5,6-1.5c2.7,0,4.6.5,5.7,1.6a5.38,5.38,0,0,1,1.7,3.9,5.74,5.74,0,0,1-.1,1.2c-.1.5-.2,1.3-.4,2.4a6.63,6.63,0,0,1-2.4,4.4Q532.35,15,528.3,15ZM76,58.7l3.6-18c.3-1.4.6-2.7.8-4.1a28.28,28.28,0,0,0,.3-4.1A11.49,11.49,0,0,0,78,24.4c-1.8-2.1-4.4-3.1-7.9-3.1a13.85,13.85,0,0,0-9.5,3.2,24.34,24.34,0,0,0-6.1,8.1h-.6c-.1-3.8-1-6.1-2.9-8.3s-4.5-3.1-8-3.1a13.4,13.4,0,0,0-9.1,3.1,24.28,24.28,0,0,0-6.2,8.2h-.5l2.1-10.3H2.1L0,32.5H14.7L7.4,68.7H20l4.9-24.3a21.69,21.69,0,0,1,4.3-9.2,12.45,12.45,0,0,1,3.4-3.1,7.39,7.39,0,0,1,4.2-1.2,3.77,3.77,0,0,1,3.3,1.3,6.27,6.27,0,0,1,.9,3.5,19.53,19.53,0,0,1-.2,2.3c-.1.8-.3,1.7-.4,2.5L34.7,68.6H47.3l4.9-24.3a20.67,20.67,0,0,1,1.6-5A19.78,19.78,0,0,1,56.5,35a15.93,15.93,0,0,1,3.4-3,7.46,7.46,0,0,1,4-1.2,3.31,3.31,0,0,1,3,1.3A5.74,5.74,0,0,1,68,35.5c0,.3-.1,1.7-.2,2.5s-4.3,21.2-4.3,21.2a8.66,8.66,0,0,0-.2,1c0,.4-.1.9-.1,1.5a6.55,6.55,0,0,0,2,5,8,8,0,0,0,5.6,1.8H79l2.1-10.3H76Zm723,0,3.6-18c.3-1.4.6-2.7.8-4.1a28.28,28.28,0,0,0,.3-4.1,11.49,11.49,0,0,0-2.7-8.1c-1.8-2.1-4.4-3.1-7.9-3.1a13.85,13.85,0,0,0-9.5,3.2,24.34,24.34,0,0,0-6.1,8.1h-.6c-.1-3.8-1-6.1-2.9-8.3s-4.5-3.1-8-3.1a13.4,13.4,0,0,0-9.1,3.1,24.28,24.28,0,0,0-6.2,8.2h-.5l2.1-10.3H739.8l-9.4,46.4H743l4.9-24.3a21.69,21.69,0,0,1,4.3-9.2,12.45,12.45,0,0,1,3.4-3.1,7.39,7.39,0,0,1,4.2-1.2,3.77,3.77,0,0,1,3.3,1.3,6.27,6.27,0,0,1,.9,3.5,19.53,19.53,0,0,1-.2,2.3c-.1.8-.3,1.7-.4,2.5l-5.7,28.1h12.6l4.9-24.3a20.67,20.67,0,0,1,1.6-5,19.78,19.78,0,0,1,2.7-4.3,15.93,15.93,0,0,1,3.4-3,7.46,7.46,0,0,1,4-1.2,3.31,3.31,0,0,1,3,1.3,5.74,5.74,0,0,1,1.1,3.4c0,.3-.1,1.7-.2,2.5s-4.3,21.2-4.3,21.2a8.66,8.66,0,0,0-.2,1c0,.4-.1.9-.1,1.5a6.55,6.55,0,0,0,2,5,8,8,0,0,0,5.6,1.8H802l2.1-10.3H799Z"/></g></g></svg>