<svg width="24" height="24" viewBox="0 0 24 24" fill="none" xmlns="http://www.w3.org/2000/svg">
<g clip-path="url(#clip0_269_124)">
<path d="M11.572 3.22933e-05C11.396 3.22933e-05 11.262 0.00103229 11.214 0.00703229C11.0927 0.0191542 10.9714 0.0301547 10.85 0.0400323C7.44298 0.346032 4.24998 2.18503 2.22798 5.01203C1.10975 6.56356 0.382803 8.36223 0.108977 10.255C0.0129766 10.914 0.000976562 11.109 0.000976562 12.002C0.000976562 12.895 0.0129766 13.091 0.108977 13.75C0.760977 18.256 3.96898 22.042 8.31798 23.445C9.09698 23.695 9.91798 23.867 10.852 23.97C11.215 24.01 12.787 24.01 13.151 23.97C14.762 23.792 16.128 23.393 17.474 22.706C17.681 22.6 17.721 22.572 17.693 22.548C17.673 22.535 16.793 21.355 15.738 19.928L13.819 17.336L11.415 13.778C10.6152 12.5876 9.80783 11.4022 8.99298 10.222C8.98398 10.22 8.97498 11.801 8.96998 13.732C8.96298 17.112 8.95998 17.247 8.91798 17.327C8.87721 17.4208 8.80409 17.4967 8.71198 17.541C8.63698 17.578 8.57198 17.585 8.21698 17.585H7.80998L7.70198 17.517C7.63522 17.4752 7.58098 17.4161 7.54498 17.346L7.49498 17.24L7.50098 12.537L7.50798 7.83203L7.57998 7.74003C7.62914 7.68253 7.68804 7.63413 7.75398 7.59703C7.84998 7.55003 7.88798 7.54603 8.29398 7.54603C8.77198 7.54603 8.85198 7.56403 8.97598 7.70003C9.94912 9.14828 10.9141 10.602 11.871 12.061C13.4484 14.4517 15.0267 16.8417 16.606 19.231L18.506 22.11L18.602 22.047C19.5167 21.4392 20.3461 20.7118 21.068 19.884C22.5797 18.1536 23.5603 16.0238 23.892 13.75C23.988 13.09 24 12.896 24 12.002C24 11.109 23.988 10.914 23.892 10.255C23.24 5.74903 20.033 1.96303 15.684 0.560032C14.8708 0.301515 14.0335 0.126282 13.185 0.0370323C12.648 0.0116186 12.1105 -0.000718387 11.573 3.22933e-05H11.572ZM15.641 7.21703C15.988 7.21703 16.049 7.22203 16.127 7.26403C16.1828 7.29223 16.2326 7.33123 16.2732 7.37878C16.3139 7.42633 16.3448 7.48148 16.364 7.54103C16.382 7.60103 16.387 8.90603 16.382 11.845L16.376 16.063L15.632 14.923L14.886 13.783V10.717C14.886 8.73503 14.896 7.62003 14.909 7.56703C14.9257 7.50448 14.955 7.44599 14.9951 7.39511C15.0351 7.34423 15.0851 7.30202 15.142 7.27103C15.238 7.22103 15.272 7.21703 15.642 7.21703H15.641Z" fill="black"/>
</g>
<defs>
<clipPath id="clip0_269_124">
<rect width="24" height="24" fill="white"/>
</clipPath>
</defs>
</svg>
