<svg width="24" height="24" viewBox="0 0 24 24" fill="none" xmlns="http://www.w3.org/2000/svg">
<g clip-path="url(#clip0_269_130)">
<path d="M11.998 24.0003C11.677 24.0003 11.357 23.9163 11.076 23.7533L8.14003 22.0163C7.70203 21.7713 7.91603 21.6843 8.06003 21.6333C8.64503 21.4303 8.76303 21.3833 9.38803 21.0293C9.45303 20.9923 9.53903 21.0063 9.60603 21.0463L11.862 22.3853C11.9039 22.4075 11.9506 22.4191 11.998 22.4191C12.0455 22.4191 12.0921 22.4075 12.134 22.3853L20.929 17.3093C20.97 17.2845 21.0039 17.2496 21.0274 17.2079C21.0509 17.1662 21.0632 17.1191 21.063 17.0713V6.92126C21.063 6.87254 21.0503 6.82467 21.0263 6.78227C21.0023 6.73987 20.9678 6.70439 20.926 6.67926L12.135 1.60726C12.0936 1.58414 12.047 1.572 11.9995 1.572C11.9521 1.572 11.9055 1.58414 11.864 1.60726L3.07503 6.68026C3.03314 6.70513 2.99834 6.74037 2.974 6.78257C2.94966 6.82478 2.93658 6.87254 2.93603 6.92126V17.0713C2.93623 17.1192 2.94921 17.1663 2.97364 17.2076C2.99807 17.2489 3.03307 17.283 3.07503 17.3063L5.48403 18.6983C6.79103 19.3523 7.59203 18.5823 7.59203 17.8083V7.78726C7.59203 7.64526 7.70603 7.53426 7.84803 7.53426H8.96303C9.10203 7.53426 9.21803 7.64626 9.21803 7.78726V17.8083C9.21803 19.5533 8.26803 20.5533 6.61403 20.5533C6.10603 20.5533 5.70503 20.5533 4.58803 20.0023L2.28003 18.6753C1.99949 18.5119 1.76671 18.2778 1.60492 17.9963C1.44314 17.7149 1.35801 17.3959 1.35803 17.0713V6.92126C1.35803 6.26226 1.71103 5.64626 2.28003 5.31826L11.075 0.236258C11.3583 0.0812462 11.6761 0 11.999 0C12.322 0 12.6397 0.0812462 12.923 0.236258L21.717 5.31826C22.287 5.64726 22.641 6.26226 22.641 6.92126V17.0713C22.6405 17.396 22.5548 17.715 22.3927 17.9964C22.2306 18.2778 21.9977 18.5118 21.717 18.6753L12.923 23.7533C12.643 23.9163 12.324 24.0003 11.998 24.0003ZM19.099 13.9933C19.099 12.0933 17.815 11.5873 15.112 11.2303C12.381 10.8693 12.103 10.6823 12.103 10.0433C12.103 9.51526 12.338 8.81026 14.361 8.81026C16.168 8.81026 16.834 9.19926 17.108 10.4173C17.1205 10.4735 17.1518 10.5239 17.1967 10.5601C17.2415 10.5962 17.2974 10.616 17.355 10.6163H18.496C18.5309 10.6159 18.5653 10.6086 18.5973 10.5946C18.6292 10.5807 18.658 10.5605 18.682 10.5353C18.7062 10.509 18.7246 10.4781 18.7362 10.4443C18.7477 10.4106 18.7521 10.3748 18.749 10.3393C18.572 8.24126 17.178 7.26326 14.361 7.26326C11.853 7.26326 10.357 8.32126 10.357 10.0963C10.357 12.0213 11.845 12.5533 14.252 12.7913C17.132 13.0733 17.355 13.4943 17.355 14.0603C17.355 15.0433 16.566 15.4623 14.713 15.4623C12.386 15.4623 11.874 14.8783 11.702 13.7203C11.6925 13.6601 11.6617 13.6054 11.6153 13.5659C11.5689 13.5265 11.5099 13.505 11.449 13.5053H10.312C10.2787 13.505 10.2456 13.5113 10.2147 13.524C10.1839 13.5366 10.1558 13.5552 10.1322 13.5787C10.1086 13.6022 10.0898 13.6302 10.0771 13.6611C10.0644 13.6919 10.0579 13.7249 10.058 13.7583C10.058 15.2403 10.864 17.0063 14.713 17.0063C17.501 17.0073 19.099 15.9103 19.099 13.9933Z" />
</g>
<defs>
<clipPath id="clip0_269_130">
<rect width="24" height="24" fill="white"/>
</clipPath>
</defs>
</svg>
