<svg viewBox="0 0 28 28" fill="none" xmlns="http://www.w3.org/2000/svg">
<path d="M18.4051 18.1705L9.82745 9.59288L17.1806 3.46582L24.5331 10.8181L18.4051 18.1705Z" fill="#BE1931"/>
<path d="M26.9828 10.8183C25.6298 12.1728 23.4355 12.1728 22.0825 10.8183L17.1806 5.9173C15.8261 4.56435 15.8261 2.36845 17.1806 1.01471C18.5328 -0.338238 20.728 -0.338238 22.0825 1.01471L26.9828 5.9173C28.3366 7.27025 28.3366 9.46537 26.9828 10.8183Z" fill="#DD2E44"/>
<path d="M10.8443 13.8828C10.8443 13.8828 -0.588141 27.3622 0.0237113 27.9764C0.636347 28.5898 14.1167 17.1551 14.1167 17.1551L10.8443 13.8828Z" fill="#99AAB5"/>
<path d="M19.6304 21.8478C18.2782 23.2023 16.0831 23.2023 14.7277 21.8478L6.15083 13.2694C4.79787 11.9157 4.79787 9.72216 6.15083 8.36843C7.50459 7.01391 9.69973 7.01391 11.0535 8.36843L19.6304 16.946C20.9841 18.3005 20.9841 20.4933 19.6304 21.8478Z" fill="#DD2E44"/>
</svg>
