<svg width="24" height="24" viewBox="0 0 24 24" fill="none" xmlns="http://www.w3.org/2000/svg">
<g clip-path="url(#clip0_269_144)">
<path d="M23.56 14.7225C23.5461 14.6803 23.527 14.6399 23.503 14.6025C23.364 14.3405 23.026 14.2615 22.496 14.3715C20.842 14.7115 20.202 14.5015 19.97 14.3515C21.312 12.3035 22.415 9.82951 23.011 7.52151C23.283 6.47151 23.809 3.99851 23.133 2.79151C23.0901 2.70853 23.0399 2.62954 22.983 2.55551C21.692 0.909514 19.8 0.0245138 17.51 0.000513843C16.015 -0.0154862 14.74 0.346514 14.394 0.479514C14.2228 0.44743 14.0507 0.420086 13.878 0.397514C13.4449 0.31936 13.0061 0.276884 12.566 0.270514C11.384 0.251514 10.363 0.534514 9.51599 1.11051C8.65999 0.789514 4.72899 -0.534486 2.29599 1.18951C0.934989 2.15251 0.308989 3.87251 0.429989 6.30351C0.470989 7.12151 0.936989 9.63751 1.67299 12.0475C2.13299 13.5535 2.61099 14.7495 3.10599 15.6295C3.65899 16.6235 4.23199 17.2225 4.81999 17.4195C5.26799 17.5675 5.95299 17.5625 6.67799 16.6905C7.30689 15.9383 7.95545 15.2027 8.62299 14.4845C9.05799 14.7195 9.52899 14.8465 10.013 14.8615C10.0129 14.8628 10.0129 14.8642 10.013 14.8655C9.92885 14.9657 9.84651 15.0674 9.76599 15.1705C9.42699 15.6005 9.35599 15.6905 8.26599 15.9155C7.95599 15.9795 7.13199 16.1485 7.11999 16.7265C7.1177 16.8421 7.14933 16.9558 7.21099 17.0535C7.43799 17.4765 8.13299 17.6635 8.22599 17.6865C9.56099 18.0195 10.731 17.7785 11.598 17.0075C11.581 19.2385 11.675 21.4255 11.943 22.0955C12.164 22.6485 12.705 23.9995 14.413 23.9995C14.663 23.9995 14.939 23.9695 15.242 23.9055C17.024 23.5235 17.798 22.7355 18.097 20.9995C18.247 20.1295 18.499 18.1245 18.636 16.8985C18.653 16.8285 18.672 16.7785 18.693 16.7625C18.693 16.7625 18.763 16.7145 19.12 16.7925C19.1345 16.7957 19.1492 16.7981 19.164 16.7995L19.418 16.8215L19.433 16.8225C20.28 16.8615 21.344 16.6805 21.964 16.3925C22.608 16.0925 23.771 15.3595 23.56 14.7225ZM2.36999 11.8755C1.62599 9.44051 1.19199 6.99051 1.15799 6.30451C1.04899 4.13251 1.57499 2.62151 2.71999 1.81151C4.55699 0.512514 7.55999 1.27151 8.82799 1.68151L8.81799 1.69151C6.79499 3.73351 6.84299 7.22551 6.84999 7.43951C6.84999 7.52151 6.85599 7.63851 6.86599 7.79951C6.89999 8.38551 6.96599 9.47951 6.79199 10.7175C6.63199 11.8675 6.98599 12.9935 7.76499 13.8065C7.84499 13.8905 7.92999 13.9695 8.01699 14.0435C7.66999 14.4145 6.91699 15.2365 6.11399 16.2015C5.54599 16.8835 5.15399 16.7525 5.02599 16.7095C4.63399 16.5795 4.21299 16.1225 3.78699 15.3875C3.30699 14.5485 2.82399 13.3555 2.37199 11.8755H2.36999ZM8.37699 16.9635C8.22517 16.9253 8.07967 16.8653 7.94499 16.7855C8.03399 16.7465 8.18199 16.6955 8.42799 16.6455C9.71199 16.3805 9.90999 16.1945 10.343 15.6455C10.4596 15.4932 10.5821 15.3454 10.71 15.2025C10.7436 15.1649 10.7688 15.1206 10.784 15.0725C10.954 14.9215 11.056 14.9625 11.22 15.0305C11.376 15.0955 11.528 15.2905 11.59 15.5055C11.62 15.6075 11.652 15.8005 11.545 15.9505C10.641 17.2165 9.32299 17.2005 8.37699 16.9635ZM10.471 12.9755L10.419 13.1155C10.286 13.4725 10.162 13.8045 10.085 14.1195C9.41799 14.1175 8.76799 13.8315 8.27499 13.3165C7.64699 12.6615 7.36199 11.7505 7.49199 10.8165C7.67499 9.50851 7.60799 8.36951 7.57199 7.75751L7.55899 7.53751C7.85499 7.27551 9.22499 6.54151 10.202 6.76551C10.648 6.86751 10.92 7.17151 11.032 7.69351C11.617 10.3975 11.11 11.5235 10.702 12.4295C10.6192 12.6089 10.5425 12.791 10.472 12.9755H10.471ZM17.835 17.5475C17.818 17.7245 17.799 17.9235 17.773 18.1435L17.627 18.5815C17.6154 18.6164 17.6094 18.6528 17.609 18.6895C17.603 19.1645 17.555 19.3385 17.494 19.5595C17.3947 19.904 17.3343 20.2586 17.314 20.6165C17.204 22.0305 16.436 22.8435 14.897 23.1725C13.382 23.4975 13.113 22.6765 12.877 21.9515C12.8524 21.8754 12.8264 21.7997 12.799 21.7245C12.584 21.1385 12.609 20.3125 12.642 19.1695C12.658 18.6085 12.617 17.2685 12.312 16.5235C12.316 16.2305 12.322 15.9325 12.331 15.6315C12.3318 15.5932 12.3264 15.5551 12.315 15.5185C12.3053 15.4482 12.2906 15.3787 12.271 15.3105C12.149 14.8825 11.851 14.5245 11.491 14.3755C11.349 14.3165 11.088 14.2085 10.774 14.2885C10.841 14.0125 10.957 13.7015 11.083 13.3635L11.136 13.2215C11.196 13.0615 11.27 12.8965 11.349 12.7215C11.775 11.7735 12.359 10.4755 11.725 7.54351C11.488 6.44551 10.695 5.90951 9.49299 6.03351C8.77299 6.10851 8.11299 6.39951 7.78399 6.56551C7.71798 6.5989 7.65264 6.63357 7.58799 6.66951C7.67999 5.56351 8.02699 3.49551 9.32399 2.18751C9.42024 2.09043 9.52137 1.99831 9.62699 1.91151C9.67955 1.90145 9.72913 1.87956 9.77199 1.84751C10.524 1.27751 11.467 0.997514 12.574 1.01451C12.984 1.02151 13.376 1.04851 13.748 1.09551C15.688 1.45051 16.992 2.54251 17.784 3.47851C18.598 4.44051 19.039 5.40951 19.215 5.93251C17.892 5.79851 16.992 6.05951 16.535 6.71251C15.543 8.13051 17.079 10.8845 17.817 12.2085C17.952 12.4505 18.069 12.6605 18.106 12.7485C18.346 13.3315 18.657 13.7205 18.884 14.0045C18.954 14.0915 19.022 14.1755 19.073 14.2495C18.673 14.3655 17.953 14.6325 18.018 15.9665C17.9932 16.2385 17.9652 16.5102 17.934 16.7815C17.888 16.9895 17.865 17.2415 17.835 17.5475ZM18.725 15.9265C18.685 15.0945 18.995 15.0075 19.322 14.9165C19.3673 14.904 19.4123 14.8903 19.457 14.8755C19.4992 14.9129 19.544 14.9474 19.591 14.9785C20.161 15.3545 21.174 15.3995 22.598 15.1125C22.396 15.2895 22.079 15.5125 21.645 15.7135C21.235 15.9035 20.549 16.0465 19.898 16.0775C19.178 16.1115 18.812 15.9975 18.725 15.9265ZM19.295 6.65551C19.2832 6.99121 19.2481 7.32568 19.19 7.65651C19.135 8.01451 19.078 8.38451 19.063 8.83351C19.049 9.26951 19.103 9.72351 19.156 10.1635C19.263 11.0505 19.372 11.9635 18.949 12.8645C18.8786 12.7401 18.8158 12.6115 18.761 12.4795C18.6622 12.269 18.5537 12.0631 18.436 11.8625C17.82 10.7585 16.379 8.17251 17.116 7.11851C17.496 6.57551 18.458 6.55251 19.295 6.65551ZM19.523 13.6685C19.4949 13.6327 19.4665 13.597 19.438 13.5615L19.403 13.5175C20.129 12.3175 19.987 11.1305 19.86 10.0785C19.808 9.64651 19.76 9.23851 19.772 8.85651C19.785 8.44951 19.838 8.10151 19.89 7.76451C19.954 7.34951 20.02 6.92051 20.001 6.41451C20.0158 6.35233 20.0199 6.28807 20.013 6.22451C19.967 5.73851 19.413 4.28651 18.283 2.97151C17.5465 2.10359 16.6291 1.40731 15.595 0.931514C16.2611 0.795289 16.9402 0.732912 17.62 0.745514C19.672 0.791514 21.295 1.55951 22.444 3.02851C22.4685 3.06033 22.4909 3.09374 22.511 3.12851C23.234 4.48451 22.234 9.40351 19.523 13.6685ZM10.707 7.55251C10.682 7.73251 10.397 7.97551 10.086 7.97551C10.0589 7.9754 10.0318 7.9734 10.005 7.96951C9.80193 7.93391 9.62057 7.821 9.49899 7.65451C9.45299 7.59451 9.37899 7.47651 9.39299 7.36951C9.3976 7.33968 9.40822 7.31108 9.4242 7.28547C9.44019 7.25986 9.46121 7.23776 9.48599 7.22051C9.60399 7.13151 9.83799 7.09851 10.096 7.13451C10.412 7.17851 10.739 7.32751 10.707 7.55251ZM18.637 7.14151C18.648 7.22151 18.588 7.34151 18.484 7.45151C18.3763 7.5688 18.2329 7.6472 18.076 7.67451C18.0511 7.6779 18.0261 7.67957 18.001 7.67951C17.708 7.67951 17.46 7.44551 17.441 7.30851C17.417 7.13151 17.705 6.99851 18.001 6.95651C18.299 6.91451 18.613 6.96551 18.637 7.14151Z" fill="black"/>
</g>
<defs>
<clipPath id="clip0_269_144">
<rect width="24" height="24" fill="white"/>
</clipPath>
</defs>
</svg>
