<svg width="24" height="24" viewBox="0 0 24 24" fill="none" xmlns="http://www.w3.org/2000/svg">
<path d="M14.23 12.0037C14.23 12.5965 13.9946 13.1651 13.5754 13.5844C13.1563 14.0037 12.5879 14.2394 11.995 14.2397C11.402 14.2397 10.8332 14.0041 10.4139 13.5848C9.99458 13.1654 9.759 12.5967 9.759 12.0037C9.759 11.4108 9.99444 10.8422 10.4136 10.4229C10.8327 10.0036 11.4011 9.76795 11.994 9.76768C12.587 9.76768 13.1558 10.0033 13.5751 10.4226C13.9944 10.8419 14.23 11.4107 14.23 12.0037ZM16.878 1.31368C15.532 1.31368 13.771 2.27368 11.99 3.93568C10.21 2.28268 8.448 1.33368 7.103 1.33368C6.693 1.33368 6.32 1.42668 5.997 1.61168C4.622 2.40468 4.314 4.87568 5.024 7.97668C1.98 8.91668 0 10.4197 0 12.0037C0 13.5937 1.99 15.1007 5.043 16.0337C4.339 19.1467 4.653 21.6217 6.031 22.4137C6.351 22.6007 6.721 22.6887 7.133 22.6887C8.478 22.6887 10.24 21.7287 12.021 20.0647C13.801 21.7187 15.563 22.6677 16.908 22.6677C17.318 22.6677 17.691 22.5777 18.014 22.3927C19.388 21.6007 19.697 19.1297 18.987 16.0277C22.02 15.0957 24 13.5897 24 12.0037C24 10.4137 22.01 8.90668 18.957 7.97168C19.661 4.86168 19.347 2.38468 17.969 1.59168C17.6359 1.40434 17.2601 1.30843 16.878 1.31368ZM16.873 2.40368V2.40968C17.098 2.40968 17.279 2.45368 17.431 2.53668C18.097 2.91868 18.386 4.37168 18.161 6.24068C18.107 6.70068 18.019 7.18568 17.911 7.68068C16.8885 7.43326 15.8505 7.25486 14.804 7.14668C14.1808 6.28669 13.501 5.46921 12.769 4.69968C14.361 3.21968 15.856 2.40768 16.874 2.40468L16.873 2.40368ZM7.103 2.42368C8.115 2.42368 9.617 3.23168 11.213 4.70368C10.527 5.42368 9.843 6.24068 9.193 7.14568C8.14411 7.2526 7.10393 7.43237 6.08 7.68368C5.97264 7.21469 5.88788 6.74081 5.826 6.26368C5.596 4.39568 5.88 2.94368 6.54 2.55668C6.73 2.46668 6.94 2.42868 7.103 2.42368ZM11.985 5.47368C12.44 5.94168 12.895 6.46568 13.345 7.03768C12.905 7.01768 12.455 7.00368 12 7.00368C11.54 7.00368 11.085 7.01368 10.64 7.03768C11.08 6.46568 11.535 5.94268 11.985 5.47368ZM12 8.09968C12.74 8.09968 13.477 8.13368 14.202 8.19268C14.608 8.77468 15.004 9.39568 15.385 10.0527C15.757 10.6927 16.095 11.3427 16.403 11.9987C16.095 12.6537 15.757 13.3087 15.39 13.9487C15.01 14.6087 14.617 15.2367 14.21 15.8187C12.7422 15.9471 11.2661 15.9488 9.798 15.8237C9.37817 15.2203 8.9835 14.5997 8.615 13.9637C8.243 13.3237 7.905 12.6737 7.597 12.0177C7.90601 11.3519 8.244 10.6999 8.61 10.0637C8.99 9.40368 9.383 8.77768 9.79 8.19568C10.5249 8.13074 11.2623 8.09804 12 8.09768V8.09968ZM8.365 8.35368C8.125 8.73068 7.885 9.11668 7.661 9.51368C7.436 9.90368 7.226 10.2957 7.026 10.6877C6.761 10.0317 6.536 9.37768 6.35 8.74068C6.99 8.59068 7.665 8.45668 8.365 8.35368ZM15.625 8.35368C16.32 8.45668 16.99 8.58368 17.631 8.74068C17.451 9.37268 17.226 10.0227 16.971 10.6737C16.5629 9.87769 16.114 9.10332 15.626 8.35368H15.625ZM18.688 9.02868C19.172 9.17868 19.632 9.34568 20.063 9.52668C21.795 10.2667 22.915 11.2347 22.915 12.0027C22.91 12.7707 21.79 13.7427 20.058 14.4777C19.638 14.6577 19.178 14.8197 18.703 14.9707C18.4026 13.9541 18.0352 12.9586 17.603 11.9907C18.053 10.9737 18.413 9.98068 18.688 9.02668V9.02868ZM5.293 9.03268C5.571 9.99268 5.938 10.9897 6.393 12.0127C5.96396 12.9748 5.60112 13.9651 5.307 14.9767C4.823 14.8267 4.363 14.6587 3.937 14.4767C2.205 13.7397 1.085 12.7707 1.085 12.0027C1.085 11.2347 2.205 10.2607 3.937 9.52668C4.357 9.34668 4.817 9.18468 5.293 9.03268ZM16.971 13.3127C17.236 13.9697 17.461 14.6247 17.647 15.2607C17.007 15.4177 16.331 15.5507 15.631 15.6507C16.1184 14.8952 16.565 14.1148 16.971 13.3127ZM7.026 13.3327C7.226 13.7247 7.436 14.1157 7.666 14.5077C7.896 14.8977 8.131 15.2797 8.371 15.6507C7.69672 15.5531 7.02733 15.4243 6.365 15.2647C6.545 14.6347 6.771 13.9827 7.025 13.3317L7.026 13.3327ZM17.92 16.3197C18.032 16.8127 18.12 17.2877 18.174 17.7427C18.404 19.6107 18.12 21.0627 17.46 21.4507C17.313 21.5407 17.122 21.5787 16.897 21.5787C15.885 21.5787 14.383 20.7717 12.787 19.2987C13.473 18.5787 14.157 17.7627 14.807 16.8587C15.914 16.7407 16.961 16.5597 17.92 16.3197ZM6.09 16.3297C7.05 16.5637 8.096 16.7447 9.197 16.8617C9.857 17.7667 10.542 18.5887 11.232 19.3077C9.637 20.7907 8.14 21.6027 7.122 21.6027C6.92969 21.6042 6.73989 21.5589 6.569 21.4707C5.903 21.0907 5.614 19.6367 5.839 17.7677C5.893 17.3077 5.982 16.8237 6.09 16.3297ZM10.65 16.9697C11.09 16.9897 11.54 17.0037 11.995 17.0037C12.455 17.0037 12.91 16.9937 13.355 16.9697C12.915 17.5417 12.46 18.0647 12.01 18.5347C11.555 18.0647 11.1 17.5417 10.65 16.9697Z" fill="black"/>
</svg>
