<svg width="24" height="24" viewBox="0 0 24 24" fill="none" xmlns="http://www.w3.org/2000/svg">
<g clip-path="url(#clip0_269_138)">
<path d="M16.634 16.5041C17.504 16.4291 18.177 15.6641 18.134 14.7501C18.087 13.8361 17.338 13.1021 16.425 13.1021H16.364C15.9109 13.1183 15.4828 13.3137 15.1737 13.6454C14.8647 13.9772 14.7001 14.418 14.716 14.8711C14.746 15.3501 14.942 15.7401 15.21 16.0241C14.162 18.0621 12.589 19.5601 10.205 20.8191C8.60199 21.6571 6.90899 21.9731 5.26099 21.7491C3.88299 21.5541 2.80499 20.9391 2.14499 19.9501C1.15699 18.4511 1.06699 16.8341 1.88999 15.2161C2.48999 14.0461 3.38899 13.1931 3.98899 12.7731C3.80786 12.2709 3.6674 11.7549 3.56899 11.2301C-0.868014 14.4081 -0.416014 18.7521 0.931986 20.8051C1.93599 22.3031 3.98899 23.2611 6.23599 23.2611C6.83599 23.2611 7.46599 23.2171 8.07899 23.0671C11.976 22.3181 14.927 19.9811 16.62 16.5351L16.634 16.5041ZM21.982 12.7581C19.662 10.0301 16.244 8.53212 12.348 8.53212H11.838C11.585 7.97812 11.001 7.63312 10.34 7.63312H10.295C9.35199 7.63312 8.61699 8.44312 8.64799 9.38612C8.67799 10.2841 9.44199 11.0341 10.356 11.0341H10.43C10.7542 11.0216 11.0679 10.916 11.3337 10.73C11.5995 10.544 11.8062 10.2854 11.929 9.98512H12.484C14.793 9.98512 16.979 10.6591 18.972 11.9771C20.499 12.9821 21.594 14.3001 22.209 15.8741C22.747 17.1621 22.718 18.4211 22.164 19.4711C21.309 21.1181 19.87 21.9881 17.968 21.9881C16.769 21.9881 15.601 21.6131 15.001 21.3441C14.641 21.6421 14.041 22.1371 13.607 22.4371C14.925 23.0351 16.259 23.3801 17.547 23.3801C20.469 23.3801 22.641 21.7331 23.466 20.1441C24.364 18.3461 24.29 15.3201 21.996 12.7281L21.982 12.7581ZM6.48999 17.0421C6.51999 17.9411 7.28299 18.6901 8.19799 18.6901H8.25799C8.48317 18.685 8.70505 18.6349 8.91057 18.5428C9.11609 18.4506 9.30109 18.3183 9.45467 18.1535C9.60824 17.9887 9.72729 17.7949 9.8048 17.5834C9.88232 17.372 9.91672 17.1471 9.90599 16.9221C9.90599 16.0221 9.12699 15.2751 8.21299 15.2751H8.15299C8.09299 15.2751 8.00299 15.2751 7.92699 15.3041C6.68399 13.2061 6.15899 10.9571 6.35499 8.53212C6.47499 6.70412 7.07499 5.11512 8.15199 3.79712C9.05199 2.67312 10.745 2.11712 11.899 2.08912C15.135 2.02812 16.484 6.06012 16.588 7.66312L18.086 8.11312C17.741 3.19712 14.686 0.620117 11.764 0.620117C9.01999 0.620117 6.48999 2.61312 5.46999 5.53512C4.07699 9.43012 4.99099 13.1771 6.69999 16.1741C6.54999 16.3691 6.45999 16.7131 6.48999 17.0421Z" fill="black"/>
</g>
<defs>
<clipPath id="clip0_269_138">
<rect width="24" height="24" fill="white"/>
</clipPath>
</defs>
</svg>
