<svg width="24" height="24" viewBox="0 0 24 24" fill="none" xmlns="http://www.w3.org/2000/svg">
<g clip-path="url(#clip0_269_134)">
<path d="M21.854 1.41591C21.5208 2.21522 21.0895 2.97001 20.57 3.66291C19.458 2.51112 18.1262 1.59416 16.6535 0.966336C15.1807 0.338513 13.597 0.0125898 11.996 0.00786463C10.395 0.00313944 8.80933 0.319709 7.3329 0.938827C5.85646 1.55794 4.51927 2.46702 3.40049 3.61223C2.28171 4.75744 1.4041 6.1155 0.819626 7.60599C0.235148 9.09648 -0.0443123 10.6891 -0.00220835 12.2895C0.0398956 13.89 0.402708 15.4657 1.06475 16.9234C1.72678 18.3811 2.67459 19.6911 3.85203 20.7759L4.29603 21.1709C5.98275 22.5937 8.03038 23.5218 10.2121 23.8525C12.3939 24.1832 14.6246 23.9036 16.6572 23.0446C18.6897 22.1855 20.4449 20.7807 21.7282 18.9855C23.0115 17.1904 23.7729 15.0751 23.928 12.8739C24.274 9.86091 23.36 6.00891 21.854 1.41591ZM5.58003 20.8749C5.4531 21.0308 5.28283 21.1455 5.09073 21.2046C4.89864 21.2638 4.69332 21.2647 4.50072 21.2072C4.30812 21.1497 4.13686 21.0365 4.00857 20.8818C3.88029 20.727 3.80073 20.5377 3.77994 20.3378C3.75915 20.1379 3.79807 19.9363 3.89178 19.7585C3.98549 19.5807 4.12978 19.4346 4.30645 19.3388C4.48311 19.2429 4.68421 19.2015 4.88437 19.2199C5.08452 19.2383 5.27475 19.3155 5.43103 19.4419C5.63579 19.6153 5.76561 19.8611 5.79338 20.128C5.82115 20.3948 5.7447 20.6631 5.58003 20.8749ZM21.779 17.2939C18.84 21.2199 12.519 19.8869 8.49303 20.0839C8.49303 20.0839 7.77703 20.1339 7.06103 20.2319C7.06103 20.2319 7.33303 20.1089 7.67903 19.9849C10.519 18.9979 11.852 18.7999 13.58 17.9109C16.815 16.2569 20.05 12.6269 20.692 8.87291C19.457 12.4789 15.704 15.5899 12.296 16.8489C9.95003 17.7139 5.72803 18.5529 5.72803 18.5529L5.55503 18.4539C2.69003 17.0469 2.59203 10.8239 7.82703 8.82391C10.123 7.93391 12.297 8.42891 14.79 7.83591C17.433 7.21891 20.495 5.24291 21.73 2.64991C23.112 6.82391 24.791 13.2929 21.779 17.2939Z" fill="black"/>
</g>
<defs>
<clipPath id="clip0_269_134">
<rect width="24" height="24" fill="white"/>
</clipPath>
</defs>
</svg>
