<svg width="24" height="24" viewBox="0 0 24 24" fill="none" xmlns="http://www.w3.org/2000/svg">
<g clip-path="url(#clip0_269_140)">
<path d="M7.68397 0V8.035H15.459C15.739 8.035 15.961 8.271 15.961 8.518V16.32H23.986V0.502C23.986 0.368861 23.9331 0.241176 23.8389 0.147032C23.7448 0.0528891 23.6171 0 23.484 0L7.68397 0ZM7.18397 0.5L0.0859733 7.607C0.051005 7.64216 0.0272345 7.68689 0.0176614 7.73554C0.00808823 7.7842 0.0131414 7.8346 0.0321832 7.88038C0.0512251 7.92617 0.0834023 7.96529 0.124655 7.99281C0.165907 8.02033 0.214385 8.03501 0.263973 8.035H7.18397V0.5ZM7.68397 8.535V15.818C7.68397 16.096 7.90797 16.32 8.18597 16.32H15.461V9.018C15.461 8.74 15.237 8.536 14.959 8.535H7.68397ZM15.961 16.82V23.748C15.961 23.972 16.232 24.084 16.391 23.926L23.486 16.82H15.961Z" />
</g>
<defs>
<clipPath id="clip0_269_140">
<rect width="24" height="24" fill="white"/>
</clipPath>
</defs>
</svg>
