<svg width="24" height="24" viewBox="0 0 24 24" fill="none" xmlns="http://www.w3.org/2000/svg">
<path d="M16.214 6.76172L16.139 7.15272C16.023 7.89372 16.065 8.10572 16.383 8.38072L16.69 8.63472L16.372 10.0527C16.182 10.8987 15.949 11.6077 15.801 11.8407C15.674 12.0417 15.526 12.3377 15.494 12.4967C15.441 12.6867 15.261 12.8777 14.986 13.0467C14.743 13.1847 14.266 13.5547 13.928 13.8517C13.658 14.0947 13.472 14.2437 13.371 14.3077L13.041 14.5687C12.9561 14.6946 12.8923 14.8334 12.852 14.9797C12.829 15.0867 12.842 15.1577 12.876 15.2097C12.909 15.2597 12.966 15.2947 13.044 15.3167C13.1363 15.3384 13.2314 15.3461 13.326 15.3397C13.5401 15.3251 13.7519 15.2875 13.958 15.2277C14.028 15.2087 14.083 15.1907 14.131 15.1747C14.205 15.0837 14.376 14.9117 14.679 14.6127C15.483 13.8197 15.79 13.3857 15.473 13.5027C15.356 13.5447 15.409 13.4387 15.61 13.2267C16.034 12.8137 16.277 12.1897 16.785 10.2327C17.187 8.68772 17.187 8.66572 17.483 8.66572C17.622 8.66572 18.015 8.68972 18.015 8.68972V6.76172H17.113H16.214ZM20.053 9.92672C19.989 9.92672 19.883 10.0227 19.82 10.1287C19.704 10.3187 19.841 10.4347 21.587 11.5247C22.624 12.1817 23.46 12.7417 23.439 12.7847C23.418 12.8157 22.571 13.3667 21.556 14.0017C19.714 15.1437 19.704 15.1547 19.873 15.3877C20.085 15.6627 19.873 15.7577 22.264 14.2657L24 13.1547V12.3187L22.063 11.1227C21.016 10.4667 20.106 9.93772 20.053 9.92672ZM3.968 10.0437C3.915 10.0437 3.005 10.5837 1.958 11.2287L0 12.4247V13.2607L1.947 14.4777C3.027 15.1437 3.937 15.6947 3.979 15.6947C4.021 15.6947 4.106 15.5987 4.191 15.4827C4.318 15.2817 4.211 15.1967 2.423 14.0647C0.72 12.9957 0.54 12.8477 0.71 12.7317C0.816 12.6577 1.62 12.1597 2.488 11.6207C4.467 10.4037 4.361 10.4877 4.202 10.2337C4.139 10.1287 4.032 10.0337 3.969 10.0437H3.968ZM12.652 10.0667C12.36 10.0647 11.732 10.5097 9.852 12.0447C9.771 12.2377 9.764 12.3707 9.801 12.4567C9.825 12.5157 9.869 12.5567 9.93 12.5867C9.99 12.6167 10.068 12.6347 10.154 12.6417C10.325 12.6567 10.527 12.6297 10.69 12.5977L10.8 12.5727C10.8377 12.5222 10.8871 12.4817 10.944 12.4547C11.06 12.3907 11.547 11.9467 12.034 11.4707C12.891 10.6027 13.092 10.2107 12.743 10.0837C12.7144 10.0723 12.6828 10.0666 12.652 10.0667ZM14.848 10.6697C14.591 10.6767 14.128 10.9747 13.335 11.6077C12.937 11.9307 12.685 12.1047 12.55 12.1407L12.026 12.5547C11.829 12.9147 11.8 13.1377 11.852 13.2607C11.865 13.2911 11.8839 13.3185 11.9076 13.3415C11.9313 13.3645 11.9593 13.3826 11.99 13.3947C12.0664 13.4249 12.1479 13.4402 12.23 13.4397C12.4263 13.4376 12.6214 13.409 12.81 13.3547C12.9083 13.3283 13.0054 13.2976 13.101 13.2627L13.13 13.2507L13.183 13.2227C13.283 13.0937 13.513 12.8507 13.801 12.5707C14.711 11.6927 15.176 11.0687 15.081 10.8357C15.038 10.7227 14.964 10.6657 14.848 10.6697ZM12.424 11.7497C12.35 11.7577 12.184 11.8857 11.885 12.1477C11.453 12.5297 10.982 12.7497 10.819 12.6517C10.7811 12.6603 10.7431 12.6683 10.705 12.6757C10.539 12.7087 10.332 12.7357 10.147 12.7207C10.0598 12.7154 9.9744 12.6941 9.895 12.6577C9.82011 12.6235 9.76035 12.563 9.727 12.4877C9.69 12.3977 9.69 12.2857 9.732 12.1427L9.082 12.6767L7.611 13.8937V15.8667L12.431 12.0697C12.4301 12.0281 12.4355 11.9867 12.447 11.9467C12.484 11.8127 12.482 11.7447 12.424 11.7507V11.7497ZM14.498 12.3887C14.425 12.3887 14.303 12.4917 14.108 12.6987C13.843 12.9817 13.426 13.2557 13.205 13.3117L13.171 13.3297C13.1347 13.3447 13.098 13.3587 13.061 13.3717C13.001 13.3917 12.923 13.4157 12.833 13.4397C12.653 13.4887 12.429 13.5337 12.229 13.5287C12.1347 13.5286 12.0413 13.5103 11.954 13.4747C11.8717 13.4408 11.8057 13.3763 11.77 13.2947C11.712 13.1557 11.735 12.9607 11.862 12.6837L7.61 16.0327V17.2377H9.478L13.44 14.1257C13.543 14.0117 13.698 13.8557 13.907 13.6607C14.467 13.1417 14.594 12.9627 14.594 12.6977C14.594 12.4917 14.571 12.3877 14.498 12.3877V12.3887ZM15.441 14.3387L15.102 14.6767C14.912 14.8567 14.573 15.0787 14.341 15.1737L14.295 15.1937L14.292 15.1987L14.282 15.2087C14.273 15.2157 14.269 15.2167 14.262 15.2197C14.1694 15.2548 14.0753 15.2858 13.98 15.3127C13.7681 15.3744 13.5502 15.413 13.33 15.4277C13.2259 15.4344 13.1214 15.4253 13.02 15.4007C12.932 15.3813 12.8543 15.33 12.802 15.2567C12.754 15.1827 12.74 15.0837 12.767 14.9617C12.7885 14.8749 12.8204 14.7909 12.862 14.7117L9.665 17.2377H13.917L14.425 16.6557C15.123 15.8417 15.441 15.2597 15.441 14.7617V14.3387Z" fill="black"/>
</svg>
