<svg width="24" height="24" viewBox="0 0 24 24" fill="none" xmlns="http://www.w3.org/2000/svg">
<g clip-path="url(#clip0_269_116)">
<path d="M12.001 4.7998C8.80098 4.7998 6.80098 6.3998 6.00098 9.5998C7.20098 7.9998 8.60098 7.3998 10.201 7.7998C11.114 8.0278 11.766 8.6898 12.489 9.4238C13.666 10.6178 15.027 11.9998 18.001 11.9998C21.201 11.9998 23.201 10.3998 24.001 7.1998C22.801 8.7998 21.401 9.3998 19.801 8.9998C18.888 8.7718 18.236 8.1098 17.513 7.3758C16.337 6.1818 14.976 4.7998 12.001 4.7998ZM6.00098 11.9998C2.80098 11.9998 0.800977 13.5998 0.000976562 16.7998C1.20098 15.1998 2.60098 14.5998 4.20098 14.9998C5.11398 15.2278 5.76598 15.8898 6.48898 16.6238C7.66598 17.8178 9.02698 19.1998 12.001 19.1998C15.201 19.1998 17.201 17.5998 18.001 14.3998C16.801 15.9998 15.401 16.5998 13.801 16.1998C12.888 15.9718 12.236 15.3098 11.513 14.5758C10.337 13.3818 8.97598 11.9998 6.00098 11.9998Z" fill="black"/>
</g>
<defs>
<clipPath id="clip0_269_116">
<rect width="24" height="24" fill="white"/>
</clipPath>
</defs>
</svg>
