<svg width="24" height="24" viewBox="0 0 24 24" fill="none" xmlns="http://www.w3.org/2000/svg">
<g clip-path="url(#clip0_269_164)">
<path d="M23.15 2.58745L18.21 0.210451C17.9308 0.0760071 17.6167 0.0316962 17.3112 0.0836541C17.0058 0.135612 16.724 0.281268 16.505 0.500451L7.04498 9.13045L2.92498 6.00245C2.7391 5.86146 2.50974 5.78998 2.27668 5.80039C2.04361 5.8108 1.82154 5.90245 1.64898 6.05945L0.326978 7.26145C0.223958 7.3551 0.141629 7.46923 0.0852608 7.59653C0.0288928 7.72384 -0.000271849 7.86151 -0.000365982 8.00073C-0.000460116 8.13995 0.0285184 8.27766 0.0847142 8.40504C0.14091 8.53242 0.223085 8.64666 0.325978 8.74045L3.89898 12.0005L0.325978 15.2605C0.223085 15.3542 0.14091 15.4685 0.0847142 15.5959C0.0285184 15.7232 -0.000460116 15.8609 -0.000365982 16.0002C-0.000271849 16.1394 0.0288928 16.2771 0.0852608 16.4044C0.141629 16.5317 0.223958 16.6458 0.326978 16.7395L1.64998 17.9405C1.82254 18.0974 2.04461 18.1891 2.27768 18.1995C2.51074 18.2099 2.7401 18.1384 2.92598 17.9974L7.04598 14.8695L16.506 23.4995C16.7248 23.7187 17.0064 23.8644 17.3117 23.9163C17.617 23.9683 17.931 23.924 18.21 23.7894L23.152 21.4125C23.4062 21.2897 23.6207 21.0978 23.7707 20.8586C23.9207 20.6194 24.0002 20.3428 24 20.0604V3.93945C24 3.65692 23.9202 3.38012 23.7699 3.14093C23.6195 2.90174 23.4046 2.70988 23.15 2.58745ZM18.004 17.4485L10.826 12.0005L18.004 6.55245V17.4485Z" />
</g>
<defs>
<clipPath id="clip0_269_164">
<rect width="24" height="24" fill="white"/>
</clipPath>
</defs>
</svg>
